<?xml version="1.0" standalone="no"?>
<!DOCTYPE svg PUBLIC "-//W3C//DTD SVG 20010904//EN"
  "http://www.w3.org/TR/2001/REC-SVG-20010904/DTD/svg10.dtd">
<svg width="55" height="14">
  <circle cx="0" cy="0" r="1" fill="white"/>
  <circle cx="1" cy="0" r="1" fill="white"/>
  <circle cx="2" cy="0" r="1" fill="grey97"/>
  <circle cx="3" cy="0" r="1" fill="rgba(194,193,193,1)"/>
  <circle cx="4" cy="0" r="1" fill="rgba(142,141,141,1)"/>
  <circle cx="5" cy="0" r="1" fill="rgba(105,104,104,1)"/>
  <circle cx="6" cy="0" r="1" fill="rgba(77,75,75,1)"/>
  <circle cx="7" cy="0" r="1" fill="rgba(58,57,57,1)"/>
  <circle cx="8" cy="0" r="1" fill="rgba(53,52,52,1)"/>
  <circle cx="9" cy="0" r="1" fill="rgba(53,52,52,1)"/>
  <circle cx="10" cy="0" r="1" fill="rgba(53,52,52,1)"/>
  <circle cx="11" cy="0" r="1" fill="rgba(53,52,52,1)"/>
  <circle cx="12" cy="0" r="1" fill="rgba(59,58,58,1)"/>
  <circle cx="13" cy="0" r="1" fill="rgba(83,81,81,1)"/>
  <circle cx="14" cy="0" r="1" fill="rgba(108,107,107,1)"/>
  <circle cx="15" cy="0" r="1" fill="rgba(133,132,132,1)"/>
  <circle cx="16" cy="0" r="1" fill="rgba(160,159,159,1)"/>
  <circle cx="17" cy="0" r="1" fill="silver"/>
  <circle cx="18" cy="0" r="1" fill="grey94"/>
  <circle cx="19" cy="0" r="1" fill="white"/>
  <circle cx="20" cy="0" r="1" fill="white"/>
  <circle cx="21" cy="0" r="1" fill="white"/>
  <circle cx="22" cy="0" r="1" fill="white"/>
  <circle cx="23" cy="0" r="1" fill="white"/>
  <circle cx="24" cy="0" r="1" fill="white"/>
  <circle cx="25" cy="0" r="1" fill="white"/>
  <circle cx="26" cy="0" r="1" fill="white"/>
  <circle cx="27" cy="0" r="1" fill="white"/>
  <circle cx="28" cy="0" r="1" fill="white"/>
  <circle cx="29" cy="0" r="1" fill="white"/>
  <circle cx="30" cy="0" r="1" fill="white"/>
  <circle cx="31" cy="0" r="1" fill="white"/>
  <circle cx="32" cy="0" r="1" fill="white"/>
  <circle cx="33" cy="0" r="1" fill="white"/>
  <circle cx="34" cy="0" r="1" fill="white"/>
  <circle cx="35" cy="0" r="1" fill="white"/>
  <circle cx="36" cy="0" r="1" fill="rgba(251,251,251,1)"/>
  <circle cx="37" cy="0" r="1" fill="rgba(210,210,210,1)"/>
  <circle cx="38" cy="0" r="1" fill="rgba(169,168,168,1)"/>
  <circle cx="39" cy="0" r="1" fill="rgba(143,142,142,1)"/>
  <circle cx="40" cy="0" r="1" fill="rgba(118,117,117,1)"/>
  <circle cx="41" cy="0" r="1" fill="rgba(92,90,90,1)"/>
  <circle cx="42" cy="0" r="1" fill="rgba(66,64,64,1)"/>
  <circle cx="43" cy="0" r="1" fill="rgba(53,52,52,1)"/>
  <circle cx="44" cy="0" r="1" fill="rgba(53,52,52,1)"/>
  <circle cx="45" cy="0" r="1" fill="rgba(53,52,52,1)"/>
  <circle cx="46" cy="0" r="1" fill="rgba(53,52,52,1)"/>
  <circle cx="47" cy="0" r="1" fill="rgba(53,52,52,1)"/>
  <circle cx="48" cy="0" r="1" fill="rgba(73,71,71,1)"/>
  <circle cx="49" cy="0" r="1" fill="rgba(95,93,93,1)"/>
  <circle cx="50" cy="0" r="1" fill="rgba(132,131,131,1)"/>
  <circle cx="51" cy="0" r="1" fill="rgba(177,176,176,1)"/>
  <circle cx="52" cy="0" r="1" fill="grey93"/>
  <circle cx="53" cy="0" r="1" fill="white"/>
  <circle cx="54" cy="0" r="1" fill="white"/>
  <circle cx="0" cy="1" r="1" fill="grey99"/>
  <circle cx="1" cy="1" r="1" fill="rgba(150,149,149,1)"/>
  <circle cx="2" cy="1" r="1" fill="rgba(51,49,49,1)"/>
  <circle cx="3" cy="1" r="1" fill="rgba(39,37,37,1)"/>
  <circle cx="4" cy="1" r="1" fill="rgba(39,37,37,1)"/>
  <circle cx="5" cy="1" r="1" fill="rgba(39,37,37,1)"/>
  <circle cx="6" cy="1" r="1" fill="rgba(39,37,37,1)"/>
  <circle cx="7" cy="1" r="1" fill="rgba(39,37,37,1)"/>
  <circle cx="8" cy="1" r="1" fill="rgba(39,37,37,1)"/>
  <circle cx="9" cy="1" r="1" fill="rgba(39,37,37,1)"/>
  <circle cx="10" cy="1" r="1" fill="rgba(39,37,37,1)"/>
  <circle cx="11" cy="1" r="1" fill="rgba(39,37,37,1)"/>
  <circle cx="12" cy="1" r="1" fill="rgba(39,37,37,1)"/>
  <circle cx="13" cy="1" r="1" fill="rgba(39,37,37,1)"/>
  <circle cx="14" cy="1" r="1" fill="rgba(39,37,37,1)"/>
  <circle cx="15" cy="1" r="1" fill="rgba(39,37,37,1)"/>
  <circle cx="16" cy="1" r="1" fill="rgba(39,37,37,1)"/>
  <circle cx="17" cy="1" r="1" fill="rgba(39,37,37,1)"/>
  <circle cx="18" cy="1" r="1" fill="rgba(40,38,38,1)"/>
  <circle cx="19" cy="1" r="1" fill="rgba(79,77,77,1)"/>
  <circle cx="20" cy="1" r="1" fill="rgba(148,147,147,1)"/>
  <circle cx="21" cy="1" r="1" fill="rgba(225,224,224,1)"/>
  <circle cx="22" cy="1" r="1" fill="white"/>
  <circle cx="23" cy="1" r="1" fill="white"/>
  <circle cx="24" cy="1" r="1" fill="white"/>
  <circle cx="25" cy="1" r="1" fill="white"/>
  <circle cx="26" cy="1" r="1" fill="white"/>
  <circle cx="27" cy="1" r="1" fill="white"/>
  <circle cx="28" cy="1" r="1" fill="white"/>
  <circle cx="29" cy="1" r="1" fill="white"/>
  <circle cx="30" cy="1" r="1" fill="white"/>
  <circle cx="31" cy="1" r="1" fill="white"/>
  <circle cx="32" cy="1" r="1" fill="white"/>
  <circle cx="33" cy="1" r="1" fill="grey97"/>
  <circle cx="34" cy="1" r="1" fill="rgba(176,175,175,1)"/>
  <circle cx="35" cy="1" r="1" fill="rgba(105,104,104,1)"/>
  <circle cx="36" cy="1" r="1" fill="rgba(47,46,46,1)"/>
  <circle cx="37" cy="1" r="1" fill="rgba(39,37,37,1)"/>
  <circle cx="38" cy="1" r="1" fill="rgba(39,37,37,1)"/>
  <circle cx="39" cy="1" r="1" fill="rgba(39,37,37,1)"/>
  <circle cx="40" cy="1" r="1" fill="rgba(39,37,37,1)"/>
  <circle cx="41" cy="1" r="1" fill="rgba(39,37,37,1)"/>
  <circle cx="42" cy="1" r="1" fill="rgba(39,37,37,1)"/>
  <circle cx="43" cy="1" r="1" fill="rgba(39,37,37,1)"/>
  <circle cx="44" cy="1" r="1" fill="rgba(39,37,37,1)"/>
  <circle cx="45" cy="1" r="1" fill="rgba(39,37,37,1)"/>
  <circle cx="46" cy="1" r="1" fill="rgba(39,37,37,1)"/>
  <circle cx="47" cy="1" r="1" fill="rgba(39,37,37,1)"/>
  <circle cx="48" cy="1" r="1" fill="rgba(39,37,37,1)"/>
  <circle cx="49" cy="1" r="1" fill="rgba(39,37,37,1)"/>
  <circle cx="50" cy="1" r="1" fill="rgba(39,37,37,1)"/>
  <circle cx="51" cy="1" r="1" fill="rgba(39,37,37,1)"/>
  <circle cx="52" cy="1" r="1" fill="rgba(42,40,40,1)"/>
  <circle cx="53" cy="1" r="1" fill="rgba(119,118,118,1)"/>
  <circle cx="54" cy="1" r="1" fill="grey93"/>
  <circle cx="0" cy="2" r="1" fill="rgba(126,125,125,1)"/>
  <circle cx="1" cy="2" r="1" fill="rgba(39,37,37,1)"/>
  <circle cx="2" cy="2" r="1" fill="rgba(39,37,37,1)"/>
  <circle cx="3" cy="2" r="1" fill="rgba(39,37,37,1)"/>
  <circle cx="4" cy="2" r="1" fill="rgba(39,37,37,1)"/>
  <circle cx="5" cy="2" r="1" fill="rgba(39,37,37,1)"/>
  <circle cx="6" cy="2" r="1" fill="rgba(39,37,37,1)"/>
  <circle cx="7" cy="2" r="1" fill="rgba(52,45,35,1)"/>
  <circle cx="8" cy="2" r="1" fill="rgba(62,52,33,1)"/>
  <circle cx="9" cy="2" r="1" fill="rgba(68,56,32,1)"/>
  <circle cx="10" cy="2" r="1" fill="rgba(68,56,32,1)"/>
  <circle cx="11" cy="2" r="1" fill="rgba(68,56,32,1)"/>
  <circle cx="12" cy="2" r="1" fill="rgba(61,51,33,1)"/>
  <circle cx="13" cy="2" r="1" fill="rgba(41,38,37,1)"/>
  <circle cx="14" cy="2" r="1" fill="rgba(39,37,37,1)"/>
  <circle cx="15" cy="2" r="1" fill="rgba(39,37,37,1)"/>
  <circle cx="16" cy="2" r="1" fill="rgba(39,37,37,1)"/>
  <circle cx="17" cy="2" r="1" fill="rgba(39,37,37,1)"/>
  <circle cx="18" cy="2" r="1" fill="rgba(39,37,37,1)"/>
  <circle cx="19" cy="2" r="1" fill="rgba(39,37,37,1)"/>
  <circle cx="20" cy="2" r="1" fill="rgba(39,37,37,1)"/>
  <circle cx="21" cy="2" r="1" fill="rgba(41,39,39,1)"/>
  <circle cx="22" cy="2" r="1" fill="rgba(105,104,104,1)"/>
  <circle cx="23" cy="2" r="1" fill="grey89"/>
  <circle cx="24" cy="2" r="1" fill="white"/>
  <circle cx="25" cy="2" r="1" fill="white"/>
  <circle cx="26" cy="2" r="1" fill="white"/>
  <circle cx="27" cy="2" r="1" fill="white"/>
  <circle cx="28" cy="2" r="1" fill="white"/>
  <circle cx="29" cy="2" r="1" fill="white"/>
  <circle cx="30" cy="2" r="1" fill="white"/>
  <circle cx="31" cy="2" r="1" fill="grey99"/>
  <circle cx="32" cy="2" r="1" fill="rgba(154,153,153,1)"/>
  <circle cx="33" cy="2" r="1" fill="rgba(55,53,53,1)"/>
  <circle cx="34" cy="2" r="1" fill="rgba(39,37,37,1)"/>
  <circle cx="35" cy="2" r="1" fill="rgba(39,37,37,1)"/>
  <circle cx="36" cy="2" r="1" fill="rgba(39,37,37,1)"/>
  <circle cx="37" cy="2" r="1" fill="rgba(39,37,37,1)"/>
  <circle cx="38" cy="2" r="1" fill="rgba(39,37,37,1)"/>
  <circle cx="39" cy="2" r="1" fill="rgba(39,37,37,1)"/>
  <circle cx="40" cy="2" r="1" fill="rgba(39,37,37,1)"/>
  <circle cx="41" cy="2" r="1" fill="rgba(39,37,37,1)"/>
  <circle cx="42" cy="2" r="1" fill="rgba(53,46,35,1)"/>
  <circle cx="43" cy="2" r="1" fill="rgba(68,56,32,1)"/>
  <circle cx="44" cy="2" r="1" fill="rgba(68,56,32,1)"/>
  <circle cx="45" cy="2" r="1" fill="rgba(68,56,32,1)"/>
  <circle cx="46" cy="2" r="1" fill="rgba(66,54,32,1)"/>
  <circle cx="47" cy="2" r="1" fill="rgba(53,47,35,1)"/>
  <circle cx="48" cy="2" r="1" fill="rgba(42,39,37,1)"/>
  <circle cx="49" cy="2" r="1" fill="rgba(39,37,37,1)"/>
  <circle cx="50" cy="2" r="1" fill="rgba(39,37,37,1)"/>
  <circle cx="51" cy="2" r="1" fill="rgba(39,37,37,1)"/>
  <circle cx="52" cy="2" r="1" fill="rgba(39,37,37,1)"/>
  <circle cx="53" cy="2" r="1" fill="rgba(39,37,37,1)"/>
  <circle cx="54" cy="2" r="1" fill="rgba(75,74,74,1)"/>
  <circle cx="0" cy="3" r="1" fill="rgba(50,48,48,1)"/>
  <circle cx="1" cy="3" r="1" fill="rgba(39,37,37,1)"/>
  <circle cx="2" cy="3" r="1" fill="rgba(41,38,37,1)"/>
  <circle cx="3" cy="3" r="1" fill="rgba(90,70,28,1)"/>
  <circle cx="4" cy="3" r="1" fill="rgba(158,114,17,1)"/>
  <circle cx="5" cy="3" r="1" fill="rgba(202,143,9,1)"/>
  <circle cx="6" cy="3" r="1" fill="rgba(240,168,3,1)"/>
  <circle cx="7" cy="3" r="1" fill="rgba(255,177,0,1)"/>
  <circle cx="8" cy="3" r="1" fill="rgba(255,177,0,1)"/>
  <circle cx="9" cy="3" r="1" fill="rgba(255,177,0,1)"/>
  <circle cx="10" cy="3" r="1" fill="rgba(255,177,0,1)"/>
  <circle cx="11" cy="3" r="1" fill="rgba(255,177,0,1)"/>
  <circle cx="12" cy="3" r="1" fill="rgba(255,177,0,1)"/>
  <circle cx="13" cy="3" r="1" fill="rgba(250,174,1,1)"/>
  <circle cx="14" cy="3" r="1" fill="rgba(226,158,5,1)"/>
  <circle cx="15" cy="3" r="1" fill="rgba(197,140,10,1)"/>
  <circle cx="16" cy="3" r="1" fill="rgba(158,115,17,1)"/>
  <circle cx="17" cy="3" r="1" fill="rgba(120,90,23,1)"/>
  <circle cx="18" cy="3" r="1" fill="rgba(64,54,33,1)"/>
  <circle cx="19" cy="3" r="1" fill="rgba(39,37,37,1)"/>
  <circle cx="20" cy="3" r="1" fill="rgba(39,37,37,1)"/>
  <circle cx="21" cy="3" r="1" fill="rgba(39,37,37,1)"/>
  <circle cx="22" cy="3" r="1" fill="rgba(39,37,37,1)"/>
  <circle cx="23" cy="3" r="1" fill="rgba(50,48,48,1)"/>
  <circle cx="24" cy="3" r="1" fill="rgba(216,216,216,1)"/>
  <circle cx="25" cy="3" r="1" fill="white"/>
  <circle cx="26" cy="3" r="1" fill="white"/>
  <circle cx="27" cy="3" r="1" fill="white"/>
  <circle cx="28" cy="3" r="1" fill="white"/>
  <circle cx="29" cy="3" r="1" fill="white"/>
  <circle cx="30" cy="3" r="1" fill="rgba(253,253,253,1)"/>
  <circle cx="31" cy="3" r="1" fill="rgba(103,102,102,1)"/>
  <circle cx="32" cy="3" r="1" fill="rgba(39,37,37,1)"/>
  <circle cx="33" cy="3" r="1" fill="rgba(39,37,37,1)"/>
  <circle cx="34" cy="3" r="1" fill="rgba(39,37,37,1)"/>
  <circle cx="35" cy="3" r="1" fill="rgba(39,37,37,1)"/>
  <circle cx="36" cy="3" r="1" fill="rgba(42,39,37,1)"/>
  <circle cx="37" cy="3" r="1" fill="rgba(88,69,29,1)"/>
  <circle cx="38" cy="3" r="1" fill="rgba(135,99,21,1)"/>
  <circle cx="39" cy="3" r="1" fill="rgba(180,128,13,1)"/>
  <circle cx="40" cy="3" r="1" fill="rgba(216,152,7,1)"/>
  <circle cx="41" cy="3" r="1" fill="rgba(242,169,2,1)"/>
  <circle cx="42" cy="3" r="1" fill="rgba(255,177,0,1)"/>
  <circle cx="43" cy="3" r="1" fill="rgba(255,177,0,1)"/>
  <circle cx="44" cy="3" r="1" fill="rgba(255,177,0,1)"/>
  <circle cx="45" cy="3" r="1" fill="rgba(255,177,0,1)"/>
  <circle cx="46" cy="3" r="1" fill="rgba(255,177,0,1)"/>
  <circle cx="47" cy="3" r="1" fill="rgba(255,177,0,1)"/>
  <circle cx="48" cy="3" r="1" fill="rgba(248,172,1,1)"/>
  <circle cx="49" cy="3" r="1" fill="rgba(213,150,7,1)"/>
  <circle cx="50" cy="3" r="1" fill="rgba(173,124,14,1)"/>
  <circle cx="51" cy="3" r="1" fill="rgba(108,81,25,1)"/>
  <circle cx="52" cy="3" r="1" fill="rgba(47,43,36,1)"/>
  <circle cx="53" cy="3" r="1" fill="rgba(39,37,37,1)"/>
  <circle cx="54" cy="3" r="1" fill="rgba(39,37,37,1)"/>
  <circle cx="0" cy="4" r="1" fill="rgba(58,57,57,1)"/>
  <circle cx="1" cy="4" r="1" fill="rgba(39,37,37,1)"/>
  <circle cx="2" cy="4" r="1" fill="rgba(50,44,35,1)"/>
  <circle cx="3" cy="4" r="1" fill="rgba(254,176,0,1)"/>
  <circle cx="4" cy="4" r="1" fill="rgba(255,177,0,1)"/>
  <circle cx="5" cy="4" r="1" fill="rgba(255,177,0,1)"/>
  <circle cx="6" cy="4" r="1" fill="rgba(255,177,0,1)"/>
  <circle cx="7" cy="4" r="1" fill="rgba(255,177,0,1)"/>
  <circle cx="8" cy="4" r="1" fill="rgba(255,177,0,1)"/>
  <circle cx="9" cy="4" r="1" fill="rgba(255,177,0,1)"/>
  <circle cx="10" cy="4" r="1" fill="rgba(255,177,0,1)"/>
  <circle cx="11" cy="4" r="1" fill="rgba(255,177,0,1)"/>
  <circle cx="12" cy="4" r="1" fill="rgba(255,177,0,1)"/>
  <circle cx="13" cy="4" r="1" fill="rgba(255,177,0,1)"/>
  <circle cx="14" cy="4" r="1" fill="rgba(255,177,0,1)"/>
  <circle cx="15" cy="4" r="1" fill="rgba(255,177,0,1)"/>
  <circle cx="16" cy="4" r="1" fill="rgba(255,177,0,1)"/>
  <circle cx="17" cy="4" r="1" fill="rgba(255,177,0,1)"/>
  <circle cx="18" cy="4" r="1" fill="rgba(254,176,0,1)"/>
  <circle cx="19" cy="4" r="1" fill="rgba(209,148,8,1)"/>
  <circle cx="20" cy="4" r="1" fill="rgba(125,93,22,1)"/>
  <circle cx="21" cy="4" r="1" fill="rgba(43,39,36,1)"/>
  <circle cx="22" cy="4" r="1" fill="rgba(39,37,37,1)"/>
  <circle cx="23" cy="4" r="1" fill="rgba(39,37,37,1)"/>
  <circle cx="24" cy="4" r="1" fill="rgba(49,48,48,1)"/>
  <circle cx="25" cy="4" r="1" fill="rgba(53,52,52,1)"/>
  <circle cx="26" cy="4" r="1" fill="rgba(47,46,46,1)"/>
  <circle cx="27" cy="4" r="1" fill="rgba(39,37,37,1)"/>
  <circle cx="28" cy="4" r="1" fill="rgba(39,37,37,1)"/>
  <circle cx="29" cy="4" r="1" fill="rgba(42,40,40,1)"/>
  <circle cx="30" cy="4" r="1" fill="rgba(49,48,48,1)"/>
  <circle cx="31" cy="4" r="1" fill="rgba(39,37,37,1)"/>
  <circle cx="32" cy="4" r="1" fill="rgba(39,37,37,1)"/>
  <circle cx="33" cy="4" r="1" fill="rgba(39,37,37,1)"/>
  <circle cx="34" cy="4" r="1" fill="rgba(80,63,30,1)"/>
  <circle cx="35" cy="4" r="1" fill="rgba(177,126,13,1)"/>
  <circle cx="36" cy="4" r="1" fill="rgba(240,168,3,1)"/>
  <circle cx="37" cy="4" r="1" fill="rgba(255,177,0,1)"/>
  <circle cx="38" cy="4" r="1" fill="rgba(255,177,0,1)"/>
  <circle cx="39" cy="4" r="1" fill="rgba(255,177,0,1)"/>
  <circle cx="40" cy="4" r="1" fill="rgba(255,177,0,1)"/>
  <circle cx="41" cy="4" r="1" fill="rgba(255,177,0,1)"/>
  <circle cx="42" cy="4" r="1" fill="rgba(255,177,0,1)"/>
  <circle cx="43" cy="4" r="1" fill="rgba(255,177,0,1)"/>
  <circle cx="44" cy="4" r="1" fill="rgba(255,177,0,1)"/>
  <circle cx="45" cy="4" r="1" fill="rgba(255,177,0,1)"/>
  <circle cx="46" cy="4" r="1" fill="rgba(255,177,0,1)"/>
  <circle cx="47" cy="4" r="1" fill="rgba(255,177,0,1)"/>
  <circle cx="48" cy="4" r="1" fill="rgba(255,177,0,1)"/>
  <circle cx="49" cy="4" r="1" fill="rgba(255,177,0,1)"/>
  <circle cx="50" cy="4" r="1" fill="rgba(255,177,0,1)"/>
  <circle cx="51" cy="4" r="1" fill="rgba(255,177,0,1)"/>
  <circle cx="52" cy="4" r="1" fill="rgba(104,79,26,1)"/>
  <circle cx="53" cy="4" r="1" fill="rgba(39,37,37,1)"/>
  <circle cx="54" cy="4" r="1" fill="rgba(39,37,37,1)"/>
  <circle cx="0" cy="5" r="1" fill="rgba(82,81,81,1)"/>
  <circle cx="1" cy="5" r="1" fill="rgba(39,37,37,1)"/>
  <circle cx="2" cy="5" r="1" fill="rgba(39,37,37,1)"/>
  <circle cx="3" cy="5" r="1" fill="rgba(225,158,5,1)"/>
  <circle cx="4" cy="5" r="1" fill="rgba(255,177,0,1)"/>
  <circle cx="5" cy="5" r="1" fill="rgba(255,177,0,1)"/>
  <circle cx="6" cy="5" r="1" fill="rgba(255,177,0,1)"/>
  <circle cx="7" cy="5" r="1" fill="rgba(255,177,0,1)"/>
  <circle cx="8" cy="5" r="1" fill="rgba(255,177,0,1)"/>
  <circle cx="9" cy="5" r="1" fill="rgba(255,177,0,1)"/>
  <circle cx="10" cy="5" r="1" fill="rgba(255,177,0,1)"/>
  <circle cx="11" cy="5" r="1" fill="rgba(255,177,0,1)"/>
  <circle cx="12" cy="5" r="1" fill="rgba(255,177,0,1)"/>
  <circle cx="13" cy="5" r="1" fill="rgba(255,177,0,1)"/>
  <circle cx="14" cy="5" r="1" fill="rgba(255,177,0,1)"/>
  <circle cx="15" cy="5" r="1" fill="rgba(255,177,0,1)"/>
  <circle cx="16" cy="5" r="1" fill="rgba(255,177,0,1)"/>
  <circle cx="17" cy="5" r="1" fill="rgba(255,177,0,1)"/>
  <circle cx="18" cy="5" r="1" fill="rgba(255,177,0,1)"/>
  <circle cx="19" cy="5" r="1" fill="rgba(255,177,0,1)"/>
  <circle cx="20" cy="5" r="1" fill="rgba(255,177,0,1)"/>
  <circle cx="21" cy="5" r="1" fill="rgba(213,149,7,1)"/>
  <circle cx="22" cy="5" r="1" fill="rgba(39,37,37,1)"/>
  <circle cx="23" cy="5" r="1" fill="rgba(39,37,37,1)"/>
  <circle cx="24" cy="5" r="1" fill="rgba(39,37,37,1)"/>
  <circle cx="25" cy="5" r="1" fill="rgba(39,37,37,1)"/>
  <circle cx="26" cy="5" r="1" fill="rgba(39,37,37,1)"/>
  <circle cx="27" cy="5" r="1" fill="rgba(39,37,37,1)"/>
  <circle cx="28" cy="5" r="1" fill="rgba(39,37,37,1)"/>
  <circle cx="29" cy="5" r="1" fill="rgba(39,37,37,1)"/>
  <circle cx="30" cy="5" r="1" fill="rgba(39,37,37,1)"/>
  <circle cx="31" cy="5" r="1" fill="rgba(39,37,37,1)"/>
  <circle cx="32" cy="5" r="1" fill="rgba(39,37,37,1)"/>
  <circle cx="33" cy="5" r="1" fill="rgba(119,89,23,1)"/>
  <circle cx="34" cy="5" r="1" fill="rgba(253,176,0,1)"/>
  <circle cx="35" cy="5" r="1" fill="rgba(255,177,0,1)"/>
  <circle cx="36" cy="5" r="1" fill="rgba(255,177,0,1)"/>
  <circle cx="37" cy="5" r="1" fill="rgba(255,177,0,1)"/>
  <circle cx="38" cy="5" r="1" fill="rgba(255,177,0,1)"/>
  <circle cx="39" cy="5" r="1" fill="rgba(255,177,0,1)"/>
  <circle cx="40" cy="5" r="1" fill="rgba(255,177,0,1)"/>
  <circle cx="41" cy="5" r="1" fill="rgba(255,177,0,1)"/>
  <circle cx="42" cy="5" r="1" fill="rgba(255,177,0,1)"/>
  <circle cx="43" cy="5" r="1" fill="rgba(255,177,0,1)"/>
  <circle cx="44" cy="5" r="1" fill="rgba(255,177,0,1)"/>
  <circle cx="45" cy="5" r="1" fill="rgba(255,177,0,1)"/>
  <circle cx="46" cy="5" r="1" fill="rgba(255,177,0,1)"/>
  <circle cx="47" cy="5" r="1" fill="rgba(255,177,0,1)"/>
  <circle cx="48" cy="5" r="1" fill="rgba(255,177,0,1)"/>
  <circle cx="49" cy="5" r="1" fill="rgba(255,177,0,1)"/>
  <circle cx="50" cy="5" r="1" fill="rgba(255,177,0,1)"/>
  <circle cx="51" cy="5" r="1" fill="rgba(254,176,0,1)"/>
  <circle cx="52" cy="5" r="1" fill="rgba(63,52,33,1)"/>
  <circle cx="53" cy="5" r="1" fill="rgba(39,37,37,1)"/>
  <circle cx="54" cy="5" r="1" fill="rgba(42,40,40,1)"/>
  <circle cx="0" cy="6" r="1" fill="rgba(150,149,149,1)"/>
  <circle cx="1" cy="6" r="1" fill="rgba(39,37,37,1)"/>
  <circle cx="2" cy="6" r="1" fill="rgba(39,37,37,1)"/>
  <circle cx="3" cy="6" r="1" fill="rgba(143,104,19,1)"/>
  <circle cx="4" cy="6" r="1" fill="rgba(255,177,0,1)"/>
  <circle cx="5" cy="6" r="1" fill="rgba(255,177,0,1)"/>
  <circle cx="6" cy="6" r="1" fill="rgba(255,177,0,1)"/>
  <circle cx="7" cy="6" r="1" fill="rgba(255,177,0,1)"/>
  <circle cx="8" cy="6" r="1" fill="rgba(255,177,0,1)"/>
  <circle cx="9" cy="6" r="1" fill="rgba(255,177,0,1)"/>
  <circle cx="10" cy="6" r="1" fill="rgba(255,177,0,1)"/>
  <circle cx="11" cy="6" r="1" fill="rgba(255,177,0,1)"/>
  <circle cx="12" cy="6" r="1" fill="rgba(255,177,0,1)"/>
  <circle cx="13" cy="6" r="1" fill="rgba(255,177,0,1)"/>
  <circle cx="14" cy="6" r="1" fill="rgba(255,177,0,1)"/>
  <circle cx="15" cy="6" r="1" fill="rgba(255,177,0,1)"/>
  <circle cx="16" cy="6" r="1" fill="rgba(255,177,0,1)"/>
  <circle cx="17" cy="6" r="1" fill="rgba(255,177,0,1)"/>
  <circle cx="18" cy="6" r="1" fill="rgba(255,177,0,1)"/>
  <circle cx="19" cy="6" r="1" fill="rgba(255,177,0,1)"/>
  <circle cx="20" cy="6" r="1" fill="rgba(255,177,0,1)"/>
  <circle cx="21" cy="6" r="1" fill="rgba(189,134,11,1)"/>
  <circle cx="22" cy="6" r="1" fill="rgba(39,37,37,1)"/>
  <circle cx="23" cy="6" r="1" fill="rgba(39,37,37,1)"/>
  <circle cx="24" cy="6" r="1" fill="rgba(39,37,37,1)"/>
  <circle cx="25" cy="6" r="1" fill="rgba(42,40,40,1)"/>
  <circle cx="26" cy="6" r="1" fill="rgba(53,52,52,1)"/>
  <circle cx="27" cy="6" r="1" fill="rgba(53,52,52,1)"/>
  <circle cx="28" cy="6" r="1" fill="rgba(53,52,52,1)"/>
  <circle cx="29" cy="6" r="1" fill="rgba(40,38,38,1)"/>
  <circle cx="30" cy="6" r="1" fill="rgba(39,37,37,1)"/>
  <circle cx="31" cy="6" r="1" fill="rgba(39,37,37,1)"/>
  <circle cx="32" cy="6" r="1" fill="rgba(39,37,37,1)"/>
  <circle cx="33" cy="6" r="1" fill="rgba(96,74,27,1)"/>
  <circle cx="34" cy="6" r="1" fill="rgba(255,177,0,1)"/>
  <circle cx="35" cy="6" r="1" fill="rgba(255,177,0,1)"/>
  <circle cx="36" cy="6" r="1" fill="rgba(255,177,0,1)"/>
  <circle cx="37" cy="6" r="1" fill="rgba(255,177,0,1)"/>
  <circle cx="38" cy="6" r="1" fill="rgba(255,177,0,1)"/>
  <circle cx="39" cy="6" r="1" fill="rgba(255,177,0,1)"/>
  <circle cx="40" cy="6" r="1" fill="rgba(255,177,0,1)"/>
  <circle cx="41" cy="6" r="1" fill="rgba(255,177,0,1)"/>
  <circle cx="42" cy="6" r="1" fill="rgba(255,177,0,1)"/>
  <circle cx="43" cy="6" r="1" fill="rgba(255,177,0,1)"/>
  <circle cx="44" cy="6" r="1" fill="rgba(255,177,0,1)"/>
  <circle cx="45" cy="6" r="1" fill="rgba(255,177,0,1)"/>
  <circle cx="46" cy="6" r="1" fill="rgba(255,177,0,1)"/>
  <circle cx="47" cy="6" r="1" fill="rgba(255,177,0,1)"/>
  <circle cx="48" cy="6" r="1" fill="rgba(255,177,0,1)"/>
  <circle cx="49" cy="6" r="1" fill="rgba(255,177,0,1)"/>
  <circle cx="50" cy="6" r="1" fill="rgba(255,177,0,1)"/>
  <circle cx="51" cy="6" r="1" fill="rgba(197,139,10,1)"/>
  <circle cx="52" cy="6" r="1" fill="rgba(39,37,37,1)"/>
  <circle cx="53" cy="6" r="1" fill="rgba(39,37,37,1)"/>
  <circle cx="54" cy="6" r="1" fill="rgba(96,94,94,1)"/>
  <circle cx="0" cy="7" r="1" fill="rgba(225,224,224,1)"/>
  <circle cx="1" cy="7" r="1" fill="rgba(43,41,41,1)"/>
  <circle cx="2" cy="7" r="1" fill="rgba(39,37,37,1)"/>
  <circle cx="3" cy="7" r="1" fill="rgba(50,44,35,1)"/>
  <circle cx="4" cy="7" r="1" fill="rgba(221,155,6,1)"/>
  <circle cx="5" cy="7" r="1" fill="rgba(255,177,0,1)"/>
  <circle cx="6" cy="7" r="1" fill="rgba(255,177,0,1)"/>
  <circle cx="7" cy="7" r="1" fill="rgba(255,177,0,1)"/>
  <circle cx="8" cy="7" r="1" fill="rgba(255,177,0,1)"/>
  <circle cx="9" cy="7" r="1" fill="rgba(255,177,0,1)"/>
  <circle cx="10" cy="7" r="1" fill="rgba(255,177,0,1)"/>
  <circle cx="11" cy="7" r="1" fill="rgba(255,177,0,1)"/>
  <circle cx="12" cy="7" r="1" fill="rgba(255,177,0,1)"/>
  <circle cx="13" cy="7" r="1" fill="rgba(255,177,0,1)"/>
  <circle cx="14" cy="7" r="1" fill="rgba(255,177,0,1)"/>
  <circle cx="15" cy="7" r="1" fill="rgba(255,177,0,1)"/>
  <circle cx="16" cy="7" r="1" fill="rgba(255,177,0,1)"/>
  <circle cx="17" cy="7" r="1" fill="rgba(255,177,0,1)"/>
  <circle cx="18" cy="7" r="1" fill="rgba(255,177,0,1)"/>
  <circle cx="19" cy="7" r="1" fill="rgba(255,177,0,1)"/>
  <circle cx="20" cy="7" r="1" fill="rgba(255,177,0,1)"/>
  <circle cx="21" cy="7" r="1" fill="rgba(97,74,27,1)"/>
  <circle cx="22" cy="7" r="1" fill="rgba(39,37,37,1)"/>
  <circle cx="23" cy="7" r="1" fill="rgba(39,37,37,1)"/>
  <circle cx="24" cy="7" r="1" fill="rgba(149,148,148,1)"/>
  <circle cx="25" cy="7" r="1" fill="rgba(247,246,246,1)"/>
  <circle cx="26" cy="7" r="1" fill="white"/>
  <circle cx="27" cy="7" r="1" fill="white"/>
  <circle cx="28" cy="7" r="1" fill="white"/>
  <circle cx="29" cy="7" r="1" fill="grey99"/>
  <circle cx="30" cy="7" r="1" fill="rgba(231,230,230,1)"/>
  <circle cx="31" cy="7" r="1" fill="rgba(54,53,53,1)"/>
  <circle cx="32" cy="7" r="1" fill="rgba(39,37,37,1)"/>
  <circle cx="33" cy="7" r="1" fill="rgba(42,39,37,1)"/>
  <circle cx="34" cy="7" r="1" fill="rgba(219,153,6,1)"/>
  <circle cx="35" cy="7" r="1" fill="rgba(255,177,0,1)"/>
  <circle cx="36" cy="7" r="1" fill="rgba(255,177,0,1)"/>
  <circle cx="37" cy="7" r="1" fill="rgba(255,177,0,1)"/>
  <circle cx="38" cy="7" r="1" fill="rgba(255,177,0,1)"/>
  <circle cx="39" cy="7" r="1" fill="rgba(255,177,0,1)"/>
  <circle cx="40" cy="7" r="1" fill="rgba(255,177,0,1)"/>
  <circle cx="41" cy="7" r="1" fill="rgba(255,177,0,1)"/>
  <circle cx="42" cy="7" r="1" fill="rgba(255,177,0,1)"/>
  <circle cx="43" cy="7" r="1" fill="rgba(255,177,0,1)"/>
  <circle cx="44" cy="7" r="1" fill="rgba(255,177,0,1)"/>
  <circle cx="45" cy="7" r="1" fill="rgba(255,177,0,1)"/>
  <circle cx="46" cy="7" r="1" fill="rgba(255,177,0,1)"/>
  <circle cx="47" cy="7" r="1" fill="rgba(255,177,0,1)"/>
  <circle cx="48" cy="7" r="1" fill="rgba(255,177,0,1)"/>
  <circle cx="49" cy="7" r="1" fill="rgba(255,177,0,1)"/>
  <circle cx="50" cy="7" r="1" fill="rgba(247,172,1,1)"/>
  <circle cx="51" cy="7" r="1" fill="rgba(79,63,30,1)"/>
  <circle cx="52" cy="7" r="1" fill="rgba(39,37,37,1)"/>
  <circle cx="53" cy="7" r="1" fill="rgba(39,37,37,1)"/>
  <circle cx="54" cy="7" r="1" fill="rgba(174,173,173,1)"/>
  <circle cx="0" cy="8" r="1" fill="white"/>
  <circle cx="1" cy="8" r="1" fill="rgba(136,135,135,1)"/>
  <circle cx="2" cy="8" r="1" fill="rgba(39,37,37,1)"/>
  <circle cx="3" cy="8" r="1" fill="rgba(39,37,37,1)"/>
  <circle cx="4" cy="8" r="1" fill="rgba(70,58,32,1)"/>
  <circle cx="5" cy="8" r="1" fill="rgba(228,160,5,1)"/>
  <circle cx="6" cy="8" r="1" fill="rgba(255,177,0,1)"/>
  <circle cx="7" cy="8" r="1" fill="rgba(255,177,0,1)"/>
  <circle cx="8" cy="8" r="1" fill="rgba(255,177,0,1)"/>
  <circle cx="9" cy="8" r="1" fill="rgba(255,177,0,1)"/>
  <circle cx="10" cy="8" r="1" fill="rgba(255,177,0,1)"/>
  <circle cx="11" cy="8" r="1" fill="rgba(255,177,0,1)"/>
  <circle cx="12" cy="8" r="1" fill="rgba(255,177,0,1)"/>
  <circle cx="13" cy="8" r="1" fill="rgba(255,177,0,1)"/>
  <circle cx="14" cy="8" r="1" fill="rgba(255,177,0,1)"/>
  <circle cx="15" cy="8" r="1" fill="rgba(255,177,0,1)"/>
  <circle cx="16" cy="8" r="1" fill="rgba(255,177,0,1)"/>
  <circle cx="17" cy="8" r="1" fill="rgba(255,177,0,1)"/>
  <circle cx="18" cy="8" r="1" fill="rgba(255,177,0,1)"/>
  <circle cx="19" cy="8" r="1" fill="rgba(255,177,0,1)"/>
  <circle cx="20" cy="8" r="1" fill="rgba(169,122,15,1)"/>
  <circle cx="21" cy="8" r="1" fill="rgba(39,37,37,1)"/>
  <circle cx="22" cy="8" r="1" fill="rgba(39,37,37,1)"/>
  <circle cx="23" cy="8" r="1" fill="rgba(60,58,58,1)"/>
  <circle cx="24" cy="8" r="1" fill="grey98"/>
  <circle cx="25" cy="8" r="1" fill="white"/>
  <circle cx="26" cy="8" r="1" fill="white"/>
  <circle cx="27" cy="8" r="1" fill="white"/>
  <circle cx="28" cy="8" r="1" fill="white"/>
  <circle cx="29" cy="8" r="1" fill="white"/>
  <circle cx="30" cy="8" r="1" fill="white"/>
  <circle cx="31" cy="8" r="1" fill="rgba(146,145,145,1)"/>
  <circle cx="32" cy="8" r="1" fill="rgba(39,37,37,1)"/>
  <circle cx="33" cy="8" r="1" fill="rgba(39,37,37,1)"/>
  <circle cx="34" cy="8" r="1" fill="rgba(88,69,29,1)"/>
  <circle cx="35" cy="8" r="1" fill="rgba(247,171,1,1)"/>
  <circle cx="36" cy="8" r="1" fill="rgba(255,177,0,1)"/>
  <circle cx="37" cy="8" r="1" fill="rgba(255,177,0,1)"/>
  <circle cx="38" cy="8" r="1" fill="rgba(255,177,0,1)"/>
  <circle cx="39" cy="8" r="1" fill="rgba(255,177,0,1)"/>
  <circle cx="40" cy="8" r="1" fill="rgba(255,177,0,1)"/>
  <circle cx="41" cy="8" r="1" fill="rgba(255,177,0,1)"/>
  <circle cx="42" cy="8" r="1" fill="rgba(255,177,0,1)"/>
  <circle cx="43" cy="8" r="1" fill="rgba(255,177,0,1)"/>
  <circle cx="44" cy="8" r="1" fill="rgba(255,177,0,1)"/>
  <circle cx="45" cy="8" r="1" fill="rgba(255,177,0,1)"/>
  <circle cx="46" cy="8" r="1" fill="rgba(255,177,0,1)"/>
  <circle cx="47" cy="8" r="1" fill="rgba(255,177,0,1)"/>
  <circle cx="48" cy="8" r="1" fill="rgba(255,177,0,1)"/>
  <circle cx="49" cy="8" r="1" fill="rgba(248,172,1,1)"/>
  <circle cx="50" cy="8" r="1" fill="rgba(107,81,25,1)"/>
  <circle cx="51" cy="8" r="1" fill="rgba(39,37,37,1)"/>
  <circle cx="52" cy="8" r="1" fill="rgba(39,37,37,1)"/>
  <circle cx="53" cy="8" r="1" fill="rgba(83,81,81,1)"/>
  <circle cx="54" cy="8" r="1" fill="rgba(253,253,253,1)"/>
  <circle cx="0" cy="9" r="1" fill="white"/>
  <circle cx="1" cy="9" r="1" fill="grey96"/>
  <circle cx="2" cy="9" r="1" fill="rgba(80,78,78,1)"/>
  <circle cx="3" cy="9" r="1" fill="rgba(39,37,37,1)"/>
  <circle cx="4" cy="9" r="1" fill="rgba(39,37,37,1)"/>
  <circle cx="5" cy="9" r="1" fill="rgba(60,50,33,1)"/>
  <circle cx="6" cy="9" r="1" fill="rgba(184,131,12,1)"/>
  <circle cx="7" cy="9" r="1" fill="rgba(255,177,0,1)"/>
  <circle cx="8" cy="9" r="1" fill="rgba(255,177,0,1)"/>
  <circle cx="9" cy="9" r="1" fill="rgba(255,177,0,1)"/>
  <circle cx="10" cy="9" r="1" fill="rgba(255,177,0,1)"/>
  <circle cx="11" cy="9" r="1" fill="rgba(255,177,0,1)"/>
  <circle cx="12" cy="9" r="1" fill="rgba(255,177,0,1)"/>
  <circle cx="13" cy="9" r="1" fill="rgba(255,177,0,1)"/>
  <circle cx="14" cy="9" r="1" fill="rgba(255,177,0,1)"/>
  <circle cx="15" cy="9" r="1" fill="rgba(255,177,0,1)"/>
  <circle cx="16" cy="9" r="1" fill="rgba(255,177,0,1)"/>
  <circle cx="17" cy="9" r="1" fill="rgba(255,177,0,1)"/>
  <circle cx="18" cy="9" r="1" fill="rgba(253,176,0,1)"/>
  <circle cx="19" cy="9" r="1" fill="rgba(155,112,17,1)"/>
  <circle cx="20" cy="9" r="1" fill="rgba(41,38,37,1)"/>
  <circle cx="21" cy="9" r="1" fill="rgba(39,37,37,1)"/>
  <circle cx="22" cy="9" r="1" fill="rgba(40,38,38,1)"/>
  <circle cx="23" cy="9" r="1" fill="rgba(186,185,185,1)"/>
  <circle cx="24" cy="9" r="1" fill="white"/>
  <circle cx="25" cy="9" r="1" fill="white"/>
  <circle cx="26" cy="9" r="1" fill="white"/>
  <circle cx="27" cy="9" r="1" fill="white"/>
  <circle cx="28" cy="9" r="1" fill="white"/>
  <circle cx="29" cy="9" r="1" fill="white"/>
  <circle cx="30" cy="9" r="1" fill="white"/>
  <circle cx="31" cy="9" r="1" fill="rgba(244,244,244,1)"/>
  <circle cx="32" cy="9" r="1" fill="rgba(71,69,69,1)"/>
  <circle cx="33" cy="9" r="1" fill="rgba(39,37,37,1)"/>
  <circle cx="34" cy="9" r="1" fill="rgba(39,37,37,1)"/>
  <circle cx="35" cy="9" r="1" fill="rgba(92,72,28,1)"/>
  <circle cx="36" cy="9" r="1" fill="rgba(232,162,4,1)"/>
  <circle cx="37" cy="9" r="1" fill="rgba(255,177,0,1)"/>
  <circle cx="38" cy="9" r="1" fill="rgba(255,177,0,1)"/>
  <circle cx="39" cy="9" r="1" fill="rgba(255,177,0,1)"/>
  <circle cx="40" cy="9" r="1" fill="rgba(255,177,0,1)"/>
  <circle cx="41" cy="9" r="1" fill="rgba(255,177,0,1)"/>
  <circle cx="42" cy="9" r="1" fill="rgba(255,177,0,1)"/>
  <circle cx="43" cy="9" r="1" fill="rgba(255,177,0,1)"/>
  <circle cx="44" cy="9" r="1" fill="rgba(255,177,0,1)"/>
  <circle cx="45" cy="9" r="1" fill="rgba(255,177,0,1)"/>
  <circle cx="46" cy="9" r="1" fill="rgba(255,177,0,1)"/>
  <circle cx="47" cy="9" r="1" fill="rgba(255,177,0,1)"/>
  <circle cx="48" cy="9" r="1" fill="rgba(215,151,7,1)"/>
  <circle cx="49" cy="9" r="1" fill="rgba(87,69,29,1)"/>
  <circle cx="50" cy="9" r="1" fill="rgba(39,37,37,1)"/>
  <circle cx="51" cy="9" r="1" fill="rgba(39,37,37,1)"/>
  <circle cx="52" cy="9" r="1" fill="rgba(52,50,50,1)"/>
  <circle cx="53" cy="9" r="1" fill="grey85"/>
  <circle cx="54" cy="9" r="1" fill="white"/>
  <circle cx="0" cy="10" r="1" fill="white"/>
  <circle cx="1" cy="10" r="1" fill="white"/>
  <circle cx="2" cy="10" r="1" fill="rgba(235,234,234,1)"/>
  <circle cx="3" cy="10" r="1" fill="rgba(69,68,68,1)"/>
  <circle cx="4" cy="10" r="1" fill="rgba(39,37,37,1)"/>
  <circle cx="5" cy="10" r="1" fill="rgba(39,37,37,1)"/>
  <circle cx="6" cy="10" r="1" fill="rgba(39,37,37,1)"/>
  <circle cx="7" cy="10" r="1" fill="rgba(84,66,29,1)"/>
  <circle cx="8" cy="10" r="1" fill="rgba(176,125,13,1)"/>
  <circle cx="9" cy="10" r="1" fill="rgba(240,168,3,1)"/>
  <circle cx="10" cy="10" r="1" fill="rgba(255,177,0,1)"/>
  <circle cx="11" cy="10" r="1" fill="rgba(255,177,0,1)"/>
  <circle cx="12" cy="10" r="1" fill="rgba(255,177,0,1)"/>
  <circle cx="13" cy="10" r="1" fill="rgba(255,177,0,1)"/>
  <circle cx="14" cy="10" r="1" fill="rgba(255,177,0,1)"/>
  <circle cx="15" cy="10" r="1" fill="rgba(255,177,0,1)"/>
  <circle cx="16" cy="10" r="1" fill="rgba(248,172,1,1)"/>
  <circle cx="17" cy="10" r="1" fill="rgba(184,131,12,1)"/>
  <circle cx="18" cy="10" r="1" fill="rgba(83,65,29,1)"/>
  <circle cx="19" cy="10" r="1" fill="rgba(39,37,37,1)"/>
  <circle cx="20" cy="10" r="1" fill="rgba(39,37,37,1)"/>
  <circle cx="21" cy="10" r="1" fill="rgba(39,37,37,1)"/>
  <circle cx="22" cy="10" r="1" fill="rgba(141,140,140,1)"/>
  <circle cx="23" cy="10" r="1" fill="white"/>
  <circle cx="24" cy="10" r="1" fill="white"/>
  <circle cx="25" cy="10" r="1" fill="white"/>
  <circle cx="26" cy="10" r="1" fill="white"/>
  <circle cx="27" cy="10" r="1" fill="white"/>
  <circle cx="28" cy="10" r="1" fill="white"/>
  <circle cx="29" cy="10" r="1" fill="white"/>
  <circle cx="30" cy="10" r="1" fill="white"/>
  <circle cx="31" cy="10" r="1" fill="white"/>
  <circle cx="32" cy="10" r="1" fill="rgba(216,216,216,1)"/>
  <circle cx="33" cy="10" r="1" fill="rgba(53,52,52,1)"/>
  <circle cx="34" cy="10" r="1" fill="rgba(39,37,37,1)"/>
  <circle cx="35" cy="10" r="1" fill="rgba(39,37,37,1)"/>
  <circle cx="36" cy="10" r="1" fill="rgba(53,46,35,1)"/>
  <circle cx="37" cy="10" r="1" fill="rgba(146,106,19,1)"/>
  <circle cx="38" cy="10" r="1" fill="rgba(233,163,4,1)"/>
  <circle cx="39" cy="10" r="1" fill="rgba(255,177,0,1)"/>
  <circle cx="40" cy="10" r="1" fill="rgba(255,177,0,1)"/>
  <circle cx="41" cy="10" r="1" fill="rgba(255,177,0,1)"/>
  <circle cx="42" cy="10" r="1" fill="rgba(255,177,0,1)"/>
  <circle cx="43" cy="10" r="1" fill="rgba(255,177,0,1)"/>
  <circle cx="44" cy="10" r="1" fill="rgba(255,177,0,1)"/>
  <circle cx="45" cy="10" r="1" fill="rgba(250,174,1,1)"/>
  <circle cx="46" cy="10" r="1" fill="rgba(199,141,10,1)"/>
  <circle cx="47" cy="10" r="1" fill="rgba(111,84,25,1)"/>
  <circle cx="48" cy="10" r="1" fill="rgba(42,39,37,1)"/>
  <circle cx="49" cy="10" r="1" fill="rgba(39,37,37,1)"/>
  <circle cx="50" cy="10" r="1" fill="rgba(39,37,37,1)"/>
  <circle cx="51" cy="10" r="1" fill="rgba(46,44,44,1)"/>
  <circle cx="52" cy="10" r="1" fill="rgba(200,199,199,1)"/>
  <circle cx="53" cy="10" r="1" fill="white"/>
  <circle cx="54" cy="10" r="1" fill="white"/>
  <circle cx="0" cy="11" r="1" fill="white"/>
  <circle cx="1" cy="11" r="1" fill="white"/>
  <circle cx="2" cy="11" r="1" fill="white"/>
  <circle cx="3" cy="11" r="1" fill="grey94"/>
  <circle cx="4" cy="11" r="1" fill="rgba(105,104,104,1)"/>
  <circle cx="5" cy="11" r="1" fill="rgba(39,37,37,1)"/>
  <circle cx="6" cy="11" r="1" fill="rgba(39,37,37,1)"/>
  <circle cx="7" cy="11" r="1" fill="rgba(39,37,37,1)"/>
  <circle cx="8" cy="11" r="1" fill="rgba(39,37,37,1)"/>
  <circle cx="9" cy="11" r="1" fill="rgba(41,38,37,1)"/>
  <circle cx="10" cy="11" r="1" fill="rgba(75,61,31,1)"/>
  <circle cx="11" cy="11" r="1" fill="rgba(110,83,25,1)"/>
  <circle cx="12" cy="11" r="1" fill="rgba(125,93,22,1)"/>
  <circle cx="13" cy="11" r="1" fill="rgba(125,93,22,1)"/>
  <circle cx="14" cy="11" r="1" fill="rgba(118,89,24,1)"/>
  <circle cx="15" cy="11" r="1" fill="rgba(88,69,29,1)"/>
  <circle cx="16" cy="11" r="1" fill="rgba(46,42,36,1)"/>
  <circle cx="17" cy="11" r="1" fill="rgba(39,37,37,1)"/>
  <circle cx="18" cy="11" r="1" fill="rgba(39,37,37,1)"/>
  <circle cx="19" cy="11" r="1" fill="rgba(39,37,37,1)"/>
  <circle cx="20" cy="11" r="1" fill="rgba(40,38,38,1)"/>
  <circle cx="21" cy="11" r="1" fill="rgba(156,155,155,1)"/>
  <circle cx="22" cy="11" r="1" fill="white"/>
  <circle cx="23" cy="11" r="1" fill="white"/>
  <circle cx="24" cy="11" r="1" fill="white"/>
  <circle cx="25" cy="11" r="1" fill="white"/>
  <circle cx="26" cy="11" r="1" fill="white"/>
  <circle cx="27" cy="11" r="1" fill="white"/>
  <circle cx="28" cy="11" r="1" fill="white"/>
  <circle cx="29" cy="11" r="1" fill="white"/>
  <circle cx="30" cy="11" r="1" fill="white"/>
  <circle cx="31" cy="11" r="1" fill="white"/>
  <circle cx="32" cy="11" r="1" fill="white"/>
  <circle cx="33" cy="11" r="1" fill="rgba(219,218,218,1)"/>
  <circle cx="34" cy="11" r="1" fill="rgba(64,63,63,1)"/>
  <circle cx="35" cy="11" r="1" fill="rgba(39,37,37,1)"/>
  <circle cx="36" cy="11" r="1" fill="rgba(39,37,37,1)"/>
  <circle cx="37" cy="11" r="1" fill="rgba(39,37,37,1)"/>
  <circle cx="38" cy="11" r="1" fill="rgba(39,37,37,1)"/>
  <circle cx="39" cy="11" r="1" fill="rgba(74,59,31,1)"/>
  <circle cx="40" cy="11" r="1" fill="rgba(108,81,25,1)"/>
  <circle cx="41" cy="11" r="1" fill="rgba(125,93,22,1)"/>
  <circle cx="42" cy="11" r="1" fill="rgba(125,93,22,1)"/>
  <circle cx="43" cy="11" r="1" fill="rgba(119,89,23,1)"/>
  <circle cx="44" cy="11" r="1" fill="rgba(86,68,29,1)"/>
  <circle cx="45" cy="11" r="1" fill="rgba(47,42,36,1)"/>
  <circle cx="46" cy="11" r="1" fill="rgba(39,37,37,1)"/>
  <circle cx="47" cy="11" r="1" fill="rgba(39,37,37,1)"/>
  <circle cx="48" cy="11" r="1" fill="rgba(39,37,37,1)"/>
  <circle cx="49" cy="11" r="1" fill="rgba(39,37,37,1)"/>
  <circle cx="50" cy="11" r="1" fill="rgba(71,69,69,1)"/>
  <circle cx="51" cy="11" r="1" fill="rgba(215,215,215,1)"/>
  <circle cx="52" cy="11" r="1" fill="white"/>
  <circle cx="53" cy="11" r="1" fill="white"/>
  <circle cx="54" cy="11" r="1" fill="white"/>
  <circle cx="0" cy="12" r="1" fill="white"/>
  <circle cx="1" cy="12" r="1" fill="white"/>
  <circle cx="2" cy="12" r="1" fill="white"/>
  <circle cx="3" cy="12" r="1" fill="white"/>
  <circle cx="4" cy="12" r="1" fill="rgba(254,254,254,1)"/>
  <circle cx="5" cy="12" r="1" fill="rgba(179,178,178,1)"/>
  <circle cx="6" cy="12" r="1" fill="rgba(70,69,69,1)"/>
  <circle cx="7" cy="12" r="1" fill="rgba(39,37,37,1)"/>
  <circle cx="8" cy="12" r="1" fill="rgba(39,37,37,1)"/>
  <circle cx="9" cy="12" r="1" fill="rgba(39,37,37,1)"/>
  <circle cx="10" cy="12" r="1" fill="rgba(39,37,37,1)"/>
  <circle cx="11" cy="12" r="1" fill="rgba(39,37,37,1)"/>
  <circle cx="12" cy="12" r="1" fill="rgba(39,37,37,1)"/>
  <circle cx="13" cy="12" r="1" fill="rgba(39,37,37,1)"/>
  <circle cx="14" cy="12" r="1" fill="rgba(39,37,37,1)"/>
  <circle cx="15" cy="12" r="1" fill="rgba(39,37,37,1)"/>
  <circle cx="16" cy="12" r="1" fill="rgba(39,37,37,1)"/>
  <circle cx="17" cy="12" r="1" fill="rgba(39,37,37,1)"/>
  <circle cx="18" cy="12" r="1" fill="rgba(39,37,37,1)"/>
  <circle cx="19" cy="12" r="1" fill="rgba(81,79,79,1)"/>
  <circle cx="20" cy="12" r="1" fill="rgba(206,205,205,1)"/>
  <circle cx="21" cy="12" r="1" fill="white"/>
  <circle cx="22" cy="12" r="1" fill="white"/>
  <circle cx="23" cy="12" r="1" fill="white"/>
  <circle cx="24" cy="12" r="1" fill="white"/>
  <circle cx="25" cy="12" r="1" fill="white"/>
  <circle cx="26" cy="12" r="1" fill="white"/>
  <circle cx="27" cy="12" r="1" fill="white"/>
  <circle cx="28" cy="12" r="1" fill="white"/>
  <circle cx="29" cy="12" r="1" fill="white"/>
  <circle cx="30" cy="12" r="1" fill="white"/>
  <circle cx="31" cy="12" r="1" fill="white"/>
  <circle cx="32" cy="12" r="1" fill="white"/>
  <circle cx="33" cy="12" r="1" fill="white"/>
  <circle cx="34" cy="12" r="1" fill="rgba(241,240,240,1)"/>
  <circle cx="35" cy="12" r="1" fill="rgba(128,127,127,1)"/>
  <circle cx="36" cy="12" r="1" fill="rgba(41,39,39,1)"/>
  <circle cx="37" cy="12" r="1" fill="rgba(39,37,37,1)"/>
  <circle cx="38" cy="12" r="1" fill="rgba(39,37,37,1)"/>
  <circle cx="39" cy="12" r="1" fill="rgba(39,37,37,1)"/>
  <circle cx="40" cy="12" r="1" fill="rgba(39,37,37,1)"/>
  <circle cx="41" cy="12" r="1" fill="rgba(39,37,37,1)"/>
  <circle cx="42" cy="12" r="1" fill="rgba(39,37,37,1)"/>
  <circle cx="43" cy="12" r="1" fill="rgba(39,37,37,1)"/>
  <circle cx="44" cy="12" r="1" fill="rgba(39,37,37,1)"/>
  <circle cx="45" cy="12" r="1" fill="rgba(39,37,37,1)"/>
  <circle cx="46" cy="12" r="1" fill="rgba(39,37,37,1)"/>
  <circle cx="47" cy="12" r="1" fill="rgba(39,37,37,1)"/>
  <circle cx="48" cy="12" r="1" fill="rgba(51,49,49,1)"/>
  <circle cx="49" cy="12" r="1" fill="rgba(147,146,146,1)"/>
  <circle cx="50" cy="12" r="1" fill="grey96"/>
  <circle cx="51" cy="12" r="1" fill="white"/>
  <circle cx="52" cy="12" r="1" fill="white"/>
  <circle cx="53" cy="12" r="1" fill="white"/>
  <circle cx="54" cy="12" r="1" fill="white"/>
  <circle cx="0" cy="13" r="1" fill="white"/>
  <circle cx="1" cy="13" r="1" fill="white"/>
  <circle cx="2" cy="13" r="1" fill="white"/>
  <circle cx="3" cy="13" r="1" fill="white"/>
  <circle cx="4" cy="13" r="1" fill="white"/>
  <circle cx="5" cy="13" r="1" fill="white"/>
  <circle cx="6" cy="13" r="1" fill="grey99"/>
  <circle cx="7" cy="13" r="1" fill="rgba(186,185,185,1)"/>
  <circle cx="8" cy="13" r="1" fill="rgba(116,115,115,1)"/>
  <circle cx="9" cy="13" r="1" fill="rgba(53,51,51,1)"/>
  <circle cx="10" cy="13" r="1" fill="rgba(39,37,37,1)"/>
  <circle cx="11" cy="13" r="1" fill="rgba(39,37,37,1)"/>
  <circle cx="12" cy="13" r="1" fill="rgba(39,37,37,1)"/>
  <circle cx="13" cy="13" r="1" fill="rgba(39,37,37,1)"/>
  <circle cx="14" cy="13" r="1" fill="rgba(39,37,37,1)"/>
  <circle cx="15" cy="13" r="1" fill="rgba(39,37,37,1)"/>
  <circle cx="16" cy="13" r="1" fill="rgba(48,46,46,1)"/>
  <circle cx="17" cy="13" r="1" fill="rgba(110,109,109,1)"/>
  <circle cx="18" cy="13" r="1" fill="rgba(191,190,190,1)"/>
  <circle cx="19" cy="13" r="1" fill="grey99"/>
  <circle cx="20" cy="13" r="1" fill="white"/>
  <circle cx="21" cy="13" r="1" fill="white"/>
  <circle cx="22" cy="13" r="1" fill="white"/>
  <circle cx="23" cy="13" r="1" fill="white"/>
  <circle cx="24" cy="13" r="1" fill="white"/>
  <circle cx="25" cy="13" r="1" fill="white"/>
  <circle cx="26" cy="13" r="1" fill="white"/>
  <circle cx="27" cy="13" r="1" fill="white"/>
  <circle cx="28" cy="13" r="1" fill="white"/>
  <circle cx="29" cy="13" r="1" fill="white"/>
  <circle cx="30" cy="13" r="1" fill="white"/>
  <circle cx="31" cy="13" r="1" fill="white"/>
  <circle cx="32" cy="13" r="1" fill="white"/>
  <circle cx="33" cy="13" r="1" fill="white"/>
  <circle cx="34" cy="13" r="1" fill="white"/>
  <circle cx="35" cy="13" r="1" fill="white"/>
  <circle cx="36" cy="13" r="1" fill="grey87"/>
  <circle cx="37" cy="13" r="1" fill="rgba(140,139,139,1)"/>
  <circle cx="38" cy="13" r="1" fill="rgba(64,63,63,1)"/>
  <circle cx="39" cy="13" r="1" fill="rgba(39,37,37,1)"/>
  <circle cx="40" cy="13" r="1" fill="rgba(39,37,37,1)"/>
  <circle cx="41" cy="13" r="1" fill="rgba(39,37,37,1)"/>
  <circle cx="42" cy="13" r="1" fill="rgba(39,37,37,1)"/>
  <circle cx="43" cy="13" r="1" fill="rgba(39,37,37,1)"/>
  <circle cx="44" cy="13" r="1" fill="rgba(39,37,37,1)"/>
  <circle cx="45" cy="13" r="1" fill="rgba(42,40,40,1)"/>
  <circle cx="46" cy="13" r="1" fill="rgba(95,93,93,1)"/>
  <circle cx="47" cy="13" r="1" fill="rgba(164,163,163,1)"/>
  <circle cx="48" cy="13" r="1" fill="rgba(239,239,239,1)"/>
  <circle cx="49" cy="13" r="1" fill="white"/>
  <circle cx="50" cy="13" r="1" fill="white"/>
  <circle cx="51" cy="13" r="1" fill="white"/>
  <circle cx="52" cy="13" r="1" fill="white"/>
  <circle cx="53" cy="13" r="1" fill="white"/>
  <circle cx="54" cy="13" r="1" fill="white"/>
</svg>
