<?xml version="1.0" standalone="no"?>
<!DOCTYPE svg PUBLIC "-//W3C//DTD SVG 20010904//EN"
  "http://www.w3.org/TR/2001/REC-SVG-20010904/DTD/svg10.dtd">
<svg width="15" height="48">
  <circle cx="0" cy="0" r="1" fill="rgba(211,233,252,1)"/>
  <circle cx="1" cy="0" r="1" fill="rgba(129,193,246,1)"/>
  <circle cx="2" cy="0" r="1" fill="rgba(128,193,246,1)"/>
  <circle cx="3" cy="0" r="1" fill="rgba(129,193,246,1)"/>
  <circle cx="4" cy="0" r="1" fill="rgba(141,199,247,1)"/>
  <circle cx="5" cy="0" r="1" fill="rgba(141,199,247,1)"/>
  <circle cx="6" cy="0" r="1" fill="rgba(141,199,247,1)"/>
  <circle cx="7" cy="0" r="1" fill="rgba(141,199,247,1)"/>
  <circle cx="8" cy="0" r="1" fill="rgba(141,199,247,1)"/>
  <circle cx="9" cy="0" r="1" fill="rgba(141,199,247,1)"/>
  <circle cx="10" cy="0" r="1" fill="rgba(141,199,247,1)"/>
  <circle cx="11" cy="0" r="1" fill="rgba(141,199,247,1)"/>
  <circle cx="12" cy="0" r="1" fill="rgba(141,199,247,1)"/>
  <circle cx="13" cy="0" r="1" fill="rgba(147,202,248,1)"/>
  <circle cx="14" cy="0" r="1" fill="rgba(186,221,250,1)"/>
  <circle cx="0" cy="1" r="1" fill="rgba(180,218,250,1)"/>
  <circle cx="1" cy="1" r="1" fill="rgba(65,162,242,1)"/>
  <circle cx="2" cy="1" r="1" fill="rgba(65,162,242,1)"/>
  <circle cx="3" cy="1" r="1" fill="rgba(65,162,242,1)"/>
  <circle cx="4" cy="1" r="1" fill="rgba(65,162,242,1)"/>
  <circle cx="5" cy="1" r="1" fill="rgba(65,162,242,1)"/>
  <circle cx="6" cy="1" r="1" fill="rgba(65,162,242,1)"/>
  <circle cx="7" cy="1" r="1" fill="rgba(65,162,242,1)"/>
  <circle cx="8" cy="1" r="1" fill="rgba(65,162,242,1)"/>
  <circle cx="9" cy="1" r="1" fill="rgba(65,162,242,1)"/>
  <circle cx="10" cy="1" r="1" fill="rgba(65,162,242,1)"/>
  <circle cx="11" cy="1" r="1" fill="rgba(65,162,242,1)"/>
  <circle cx="12" cy="1" r="1" fill="rgba(65,162,242,1)"/>
  <circle cx="13" cy="1" r="1" fill="rgba(65,162,242,1)"/>
  <circle cx="14" cy="1" r="1" fill="rgba(83,171,243,1)"/>
  <circle cx="0" cy="2" r="1" fill="rgba(230,243,253,1)"/>
  <circle cx="1" cy="2" r="1" fill="rgba(144,201,247,1)"/>
  <circle cx="2" cy="2" r="1" fill="rgba(140,198,247,1)"/>
  <circle cx="3" cy="2" r="1" fill="rgba(95,177,244,1)"/>
  <circle cx="4" cy="2" r="1" fill="rgba(65,162,242,1)"/>
  <circle cx="5" cy="2" r="1" fill="rgba(65,162,242,1)"/>
  <circle cx="6" cy="2" r="1" fill="rgba(65,162,242,1)"/>
  <circle cx="7" cy="2" r="1" fill="rgba(65,162,242,1)"/>
  <circle cx="8" cy="2" r="1" fill="rgba(65,162,242,1)"/>
  <circle cx="9" cy="2" r="1" fill="rgba(65,162,242,1)"/>
  <circle cx="10" cy="2" r="1" fill="rgba(65,162,242,1)"/>
  <circle cx="11" cy="2" r="1" fill="rgba(65,162,242,1)"/>
  <circle cx="12" cy="2" r="1" fill="rgba(72,166,243,1)"/>
  <circle cx="13" cy="2" r="1" fill="rgba(119,188,246,1)"/>
  <circle cx="14" cy="2" r="1" fill="rgba(176,216,250,1)"/>
  <circle cx="0" cy="3" r="1" fill="white"/>
  <circle cx="1" cy="3" r="1" fill="white"/>
  <circle cx="2" cy="3" r="1" fill="white"/>
  <circle cx="3" cy="3" r="1" fill="rgba(245,250,254,1)"/>
  <circle cx="4" cy="3" r="1" fill="rgba(66,163,242,1)"/>
  <circle cx="5" cy="3" r="1" fill="rgba(65,162,242,1)"/>
  <circle cx="6" cy="3" r="1" fill="rgba(65,162,242,1)"/>
  <circle cx="7" cy="3" r="1" fill="rgba(65,162,242,1)"/>
  <circle cx="8" cy="3" r="1" fill="rgba(65,162,242,1)"/>
  <circle cx="9" cy="3" r="1" fill="rgba(65,162,242,1)"/>
  <circle cx="10" cy="3" r="1" fill="rgba(65,162,242,1)"/>
  <circle cx="11" cy="3" r="1" fill="rgba(99,178,244,1)"/>
  <circle cx="12" cy="3" r="1" fill="rgba(242,249,254,1)"/>
  <circle cx="13" cy="3" r="1" fill="white"/>
  <circle cx="14" cy="3" r="1" fill="white"/>
  <circle cx="0" cy="4" r="1" fill="white"/>
  <circle cx="1" cy="4" r="1" fill="white"/>
  <circle cx="2" cy="4" r="1" fill="white"/>
  <circle cx="3" cy="4" r="1" fill="white"/>
  <circle cx="4" cy="4" r="1" fill="rgba(74,166,243,1)"/>
  <circle cx="5" cy="4" r="1" fill="rgba(65,162,242,1)"/>
  <circle cx="6" cy="4" r="1" fill="rgba(65,162,242,1)"/>
  <circle cx="7" cy="4" r="1" fill="rgba(65,162,242,1)"/>
  <circle cx="8" cy="4" r="1" fill="rgba(65,162,242,1)"/>
  <circle cx="9" cy="4" r="1" fill="rgba(65,162,242,1)"/>
  <circle cx="10" cy="4" r="1" fill="rgba(65,162,242,1)"/>
  <circle cx="11" cy="4" r="1" fill="rgba(160,209,249,1)"/>
  <circle cx="12" cy="4" r="1" fill="white"/>
  <circle cx="13" cy="4" r="1" fill="white"/>
  <circle cx="14" cy="4" r="1" fill="white"/>
  <circle cx="0" cy="5" r="1" fill="white"/>
  <circle cx="1" cy="5" r="1" fill="white"/>
  <circle cx="2" cy="5" r="1" fill="white"/>
  <circle cx="3" cy="5" r="1" fill="white"/>
  <circle cx="4" cy="5" r="1" fill="rgba(74,166,243,1)"/>
  <circle cx="5" cy="5" r="1" fill="rgba(65,162,242,1)"/>
  <circle cx="6" cy="5" r="1" fill="rgba(65,162,242,1)"/>
  <circle cx="7" cy="5" r="1" fill="rgba(65,162,242,1)"/>
  <circle cx="8" cy="5" r="1" fill="rgba(65,162,242,1)"/>
  <circle cx="9" cy="5" r="1" fill="rgba(65,162,242,1)"/>
  <circle cx="10" cy="5" r="1" fill="rgba(65,162,242,1)"/>
  <circle cx="11" cy="5" r="1" fill="rgba(180,218,250,1)"/>
  <circle cx="12" cy="5" r="1" fill="white"/>
  <circle cx="13" cy="5" r="1" fill="white"/>
  <circle cx="14" cy="5" r="1" fill="white"/>
  <circle cx="0" cy="6" r="1" fill="white"/>
  <circle cx="1" cy="6" r="1" fill="white"/>
  <circle cx="2" cy="6" r="1" fill="white"/>
  <circle cx="3" cy="6" r="1" fill="white"/>
  <circle cx="4" cy="6" r="1" fill="rgba(74,166,243,1)"/>
  <circle cx="5" cy="6" r="1" fill="rgba(65,162,242,1)"/>
  <circle cx="6" cy="6" r="1" fill="rgba(65,162,242,1)"/>
  <circle cx="7" cy="6" r="1" fill="rgba(65,162,242,1)"/>
  <circle cx="8" cy="6" r="1" fill="rgba(65,162,242,1)"/>
  <circle cx="9" cy="6" r="1" fill="rgba(65,162,242,1)"/>
  <circle cx="10" cy="6" r="1" fill="rgba(65,162,242,1)"/>
  <circle cx="11" cy="6" r="1" fill="rgba(194,225,251,1)"/>
  <circle cx="12" cy="6" r="1" fill="white"/>
  <circle cx="13" cy="6" r="1" fill="white"/>
  <circle cx="14" cy="6" r="1" fill="white"/>
  <circle cx="0" cy="7" r="1" fill="white"/>
  <circle cx="1" cy="7" r="1" fill="white"/>
  <circle cx="2" cy="7" r="1" fill="white"/>
  <circle cx="3" cy="7" r="1" fill="white"/>
  <circle cx="4" cy="7" r="1" fill="rgba(74,166,243,1)"/>
  <circle cx="5" cy="7" r="1" fill="rgba(65,162,242,1)"/>
  <circle cx="6" cy="7" r="1" fill="rgba(65,162,242,1)"/>
  <circle cx="7" cy="7" r="1" fill="rgba(65,162,242,1)"/>
  <circle cx="8" cy="7" r="1" fill="rgba(65,162,242,1)"/>
  <circle cx="9" cy="7" r="1" fill="rgba(65,162,242,1)"/>
  <circle cx="10" cy="7" r="1" fill="rgba(65,162,242,1)"/>
  <circle cx="11" cy="7" r="1" fill="rgba(207,232,252,1)"/>
  <circle cx="12" cy="7" r="1" fill="white"/>
  <circle cx="13" cy="7" r="1" fill="white"/>
  <circle cx="14" cy="7" r="1" fill="white"/>
  <circle cx="0" cy="8" r="1" fill="white"/>
  <circle cx="1" cy="8" r="1" fill="white"/>
  <circle cx="2" cy="8" r="1" fill="white"/>
  <circle cx="3" cy="8" r="1" fill="white"/>
  <circle cx="4" cy="8" r="1" fill="rgba(74,166,243,1)"/>
  <circle cx="5" cy="8" r="1" fill="rgba(65,162,242,1)"/>
  <circle cx="6" cy="8" r="1" fill="rgba(65,162,242,1)"/>
  <circle cx="7" cy="8" r="1" fill="rgba(65,162,242,1)"/>
  <circle cx="8" cy="8" r="1" fill="rgba(65,162,242,1)"/>
  <circle cx="9" cy="8" r="1" fill="rgba(65,162,242,1)"/>
  <circle cx="10" cy="8" r="1" fill="rgba(65,162,242,1)"/>
  <circle cx="11" cy="8" r="1" fill="rgba(216,236,252,1)"/>
  <circle cx="12" cy="8" r="1" fill="white"/>
  <circle cx="13" cy="8" r="1" fill="white"/>
  <circle cx="14" cy="8" r="1" fill="white"/>
  <circle cx="0" cy="9" r="1" fill="white"/>
  <circle cx="1" cy="9" r="1" fill="white"/>
  <circle cx="2" cy="9" r="1" fill="white"/>
  <circle cx="3" cy="9" r="1" fill="white"/>
  <circle cx="4" cy="9" r="1" fill="rgba(75,167,243,1)"/>
  <circle cx="5" cy="9" r="1" fill="rgba(65,162,242,1)"/>
  <circle cx="6" cy="9" r="1" fill="rgba(65,162,242,1)"/>
  <circle cx="7" cy="9" r="1" fill="rgba(65,162,242,1)"/>
  <circle cx="8" cy="9" r="1" fill="rgba(65,162,242,1)"/>
  <circle cx="9" cy="9" r="1" fill="rgba(65,162,242,1)"/>
  <circle cx="10" cy="9" r="1" fill="rgba(65,162,242,1)"/>
  <circle cx="11" cy="9" r="1" fill="rgba(222,239,253,1)"/>
  <circle cx="12" cy="9" r="1" fill="white"/>
  <circle cx="13" cy="9" r="1" fill="white"/>
  <circle cx="14" cy="9" r="1" fill="white"/>
  <circle cx="0" cy="10" r="1" fill="white"/>
  <circle cx="1" cy="10" r="1" fill="white"/>
  <circle cx="2" cy="10" r="1" fill="white"/>
  <circle cx="3" cy="10" r="1" fill="white"/>
  <circle cx="4" cy="10" r="1" fill="rgba(80,169,243,1)"/>
  <circle cx="5" cy="10" r="1" fill="rgba(65,162,242,1)"/>
  <circle cx="6" cy="10" r="1" fill="rgba(65,162,242,1)"/>
  <circle cx="7" cy="10" r="1" fill="rgba(65,162,242,1)"/>
  <circle cx="8" cy="10" r="1" fill="rgba(65,162,242,1)"/>
  <circle cx="9" cy="10" r="1" fill="rgba(65,162,242,1)"/>
  <circle cx="10" cy="10" r="1" fill="rgba(65,162,242,1)"/>
  <circle cx="11" cy="10" r="1" fill="rgba(229,242,253,1)"/>
  <circle cx="12" cy="10" r="1" fill="white"/>
  <circle cx="13" cy="10" r="1" fill="white"/>
  <circle cx="14" cy="10" r="1" fill="white"/>
  <circle cx="0" cy="11" r="1" fill="white"/>
  <circle cx="1" cy="11" r="1" fill="white"/>
  <circle cx="2" cy="11" r="1" fill="white"/>
  <circle cx="3" cy="11" r="1" fill="white"/>
  <circle cx="4" cy="11" r="1" fill="rgba(86,172,243,1)"/>
  <circle cx="5" cy="11" r="1" fill="rgba(65,162,242,1)"/>
  <circle cx="6" cy="11" r="1" fill="rgba(65,162,242,1)"/>
  <circle cx="7" cy="11" r="1" fill="rgba(65,162,242,1)"/>
  <circle cx="8" cy="11" r="1" fill="rgba(65,162,242,1)"/>
  <circle cx="9" cy="11" r="1" fill="rgba(65,162,242,1)"/>
  <circle cx="10" cy="11" r="1" fill="rgba(65,162,242,1)"/>
  <circle cx="11" cy="11" r="1" fill="rgba(236,246,254,1)"/>
  <circle cx="12" cy="11" r="1" fill="white"/>
  <circle cx="13" cy="11" r="1" fill="white"/>
  <circle cx="14" cy="11" r="1" fill="white"/>
  <circle cx="0" cy="12" r="1" fill="white"/>
  <circle cx="1" cy="12" r="1" fill="white"/>
  <circle cx="2" cy="12" r="1" fill="white"/>
  <circle cx="3" cy="12" r="1" fill="white"/>
  <circle cx="4" cy="12" r="1" fill="rgba(91,175,244,1)"/>
  <circle cx="5" cy="12" r="1" fill="rgba(65,162,242,1)"/>
  <circle cx="6" cy="12" r="1" fill="rgba(65,162,242,1)"/>
  <circle cx="7" cy="12" r="1" fill="rgba(65,162,242,1)"/>
  <circle cx="8" cy="12" r="1" fill="rgba(65,162,242,1)"/>
  <circle cx="9" cy="12" r="1" fill="rgba(65,162,242,1)"/>
  <circle cx="10" cy="12" r="1" fill="rgba(65,162,242,1)"/>
  <circle cx="11" cy="12" r="1" fill="rgba(243,249,254,1)"/>
  <circle cx="12" cy="12" r="1" fill="white"/>
  <circle cx="13" cy="12" r="1" fill="white"/>
  <circle cx="14" cy="12" r="1" fill="white"/>
  <circle cx="0" cy="13" r="1" fill="white"/>
  <circle cx="1" cy="13" r="1" fill="white"/>
  <circle cx="2" cy="13" r="1" fill="white"/>
  <circle cx="3" cy="13" r="1" fill="white"/>
  <circle cx="4" cy="13" r="1" fill="rgba(95,177,244,1)"/>
  <circle cx="5" cy="13" r="1" fill="rgba(65,162,242,1)"/>
  <circle cx="6" cy="13" r="1" fill="rgba(65,162,242,1)"/>
  <circle cx="7" cy="13" r="1" fill="rgba(65,162,242,1)"/>
  <circle cx="8" cy="13" r="1" fill="rgba(65,162,242,1)"/>
  <circle cx="9" cy="13" r="1" fill="rgba(65,162,242,1)"/>
  <circle cx="10" cy="13" r="1" fill="rgba(65,162,242,1)"/>
  <circle cx="11" cy="13" r="1" fill="rgba(251,253,255,1)"/>
  <circle cx="12" cy="13" r="1" fill="white"/>
  <circle cx="13" cy="13" r="1" fill="white"/>
  <circle cx="14" cy="13" r="1" fill="white"/>
  <circle cx="0" cy="14" r="1" fill="white"/>
  <circle cx="1" cy="14" r="1" fill="white"/>
  <circle cx="2" cy="14" r="1" fill="white"/>
  <circle cx="3" cy="14" r="1" fill="white"/>
  <circle cx="4" cy="14" r="1" fill="rgba(98,178,244,1)"/>
  <circle cx="5" cy="14" r="1" fill="rgba(65,162,242,1)"/>
  <circle cx="6" cy="14" r="1" fill="rgba(65,162,242,1)"/>
  <circle cx="7" cy="14" r="1" fill="rgba(65,162,242,1)"/>
  <circle cx="8" cy="14" r="1" fill="rgba(65,162,242,1)"/>
  <circle cx="9" cy="14" r="1" fill="rgba(65,162,242,1)"/>
  <circle cx="10" cy="14" r="1" fill="rgba(67,163,242,1)"/>
  <circle cx="11" cy="14" r="1" fill="white"/>
  <circle cx="12" cy="14" r="1" fill="white"/>
  <circle cx="13" cy="14" r="1" fill="white"/>
  <circle cx="14" cy="14" r="1" fill="white"/>
  <circle cx="0" cy="15" r="1" fill="white"/>
  <circle cx="1" cy="15" r="1" fill="white"/>
  <circle cx="2" cy="15" r="1" fill="white"/>
  <circle cx="3" cy="15" r="1" fill="white"/>
  <circle cx="4" cy="15" r="1" fill="rgba(101,180,244,1)"/>
  <circle cx="5" cy="15" r="1" fill="rgba(65,162,242,1)"/>
  <circle cx="6" cy="15" r="1" fill="rgba(65,162,242,1)"/>
  <circle cx="7" cy="15" r="1" fill="rgba(65,162,242,1)"/>
  <circle cx="8" cy="15" r="1" fill="rgba(65,162,242,1)"/>
  <circle cx="9" cy="15" r="1" fill="rgba(65,162,242,1)"/>
  <circle cx="10" cy="15" r="1" fill="rgba(74,166,243,1)"/>
  <circle cx="11" cy="15" r="1" fill="white"/>
  <circle cx="12" cy="15" r="1" fill="white"/>
  <circle cx="13" cy="15" r="1" fill="white"/>
  <circle cx="14" cy="15" r="1" fill="white"/>
  <circle cx="0" cy="16" r="1" fill="white"/>
  <circle cx="1" cy="16" r="1" fill="white"/>
  <circle cx="2" cy="16" r="1" fill="white"/>
  <circle cx="3" cy="16" r="1" fill="white"/>
  <circle cx="4" cy="16" r="1" fill="rgba(103,181,245,1)"/>
  <circle cx="5" cy="16" r="1" fill="rgba(65,162,242,1)"/>
  <circle cx="6" cy="16" r="1" fill="rgba(65,162,242,1)"/>
  <circle cx="7" cy="16" r="1" fill="rgba(65,162,242,1)"/>
  <circle cx="8" cy="16" r="1" fill="rgba(65,162,242,1)"/>
  <circle cx="9" cy="16" r="1" fill="rgba(65,162,242,1)"/>
  <circle cx="10" cy="16" r="1" fill="rgba(81,170,243,1)"/>
  <circle cx="11" cy="16" r="1" fill="white"/>
  <circle cx="12" cy="16" r="1" fill="white"/>
  <circle cx="13" cy="16" r="1" fill="white"/>
  <circle cx="14" cy="16" r="1" fill="white"/>
  <circle cx="0" cy="17" r="1" fill="white"/>
  <circle cx="1" cy="17" r="1" fill="white"/>
  <circle cx="2" cy="17" r="1" fill="white"/>
  <circle cx="3" cy="17" r="1" fill="white"/>
  <circle cx="4" cy="17" r="1" fill="rgba(106,182,245,1)"/>
  <circle cx="5" cy="17" r="1" fill="rgba(65,162,242,1)"/>
  <circle cx="6" cy="17" r="1" fill="rgba(65,162,242,1)"/>
  <circle cx="7" cy="17" r="1" fill="rgba(65,162,242,1)"/>
  <circle cx="8" cy="17" r="1" fill="rgba(65,162,242,1)"/>
  <circle cx="9" cy="17" r="1" fill="rgba(65,162,242,1)"/>
  <circle cx="10" cy="17" r="1" fill="rgba(88,173,244,1)"/>
  <circle cx="11" cy="17" r="1" fill="white"/>
  <circle cx="12" cy="17" r="1" fill="white"/>
  <circle cx="13" cy="17" r="1" fill="white"/>
  <circle cx="14" cy="17" r="1" fill="white"/>
  <circle cx="0" cy="18" r="1" fill="white"/>
  <circle cx="1" cy="18" r="1" fill="white"/>
  <circle cx="2" cy="18" r="1" fill="white"/>
  <circle cx="3" cy="18" r="1" fill="white"/>
  <circle cx="4" cy="18" r="1" fill="rgba(109,184,245,1)"/>
  <circle cx="5" cy="18" r="1" fill="rgba(65,162,242,1)"/>
  <circle cx="6" cy="18" r="1" fill="rgba(65,162,242,1)"/>
  <circle cx="7" cy="18" r="1" fill="rgba(65,162,242,1)"/>
  <circle cx="8" cy="18" r="1" fill="rgba(65,162,242,1)"/>
  <circle cx="9" cy="18" r="1" fill="rgba(65,162,242,1)"/>
  <circle cx="10" cy="18" r="1" fill="rgba(93,175,244,1)"/>
  <circle cx="11" cy="18" r="1" fill="white"/>
  <circle cx="12" cy="18" r="1" fill="white"/>
  <circle cx="13" cy="18" r="1" fill="white"/>
  <circle cx="14" cy="18" r="1" fill="white"/>
  <circle cx="0" cy="19" r="1" fill="white"/>
  <circle cx="1" cy="19" r="1" fill="white"/>
  <circle cx="2" cy="19" r="1" fill="white"/>
  <circle cx="3" cy="19" r="1" fill="white"/>
  <circle cx="4" cy="19" r="1" fill="rgba(112,185,245,1)"/>
  <circle cx="5" cy="19" r="1" fill="rgba(65,162,242,1)"/>
  <circle cx="6" cy="19" r="1" fill="rgba(65,162,242,1)"/>
  <circle cx="7" cy="19" r="1" fill="rgba(65,162,242,1)"/>
  <circle cx="8" cy="19" r="1" fill="rgba(65,162,242,1)"/>
  <circle cx="9" cy="19" r="1" fill="rgba(65,162,242,1)"/>
  <circle cx="10" cy="19" r="1" fill="rgba(94,176,244,1)"/>
  <circle cx="11" cy="19" r="1" fill="white"/>
  <circle cx="12" cy="19" r="1" fill="white"/>
  <circle cx="13" cy="19" r="1" fill="white"/>
  <circle cx="14" cy="19" r="1" fill="white"/>
  <circle cx="0" cy="20" r="1" fill="white"/>
  <circle cx="1" cy="20" r="1" fill="white"/>
  <circle cx="2" cy="20" r="1" fill="white"/>
  <circle cx="3" cy="20" r="1" fill="white"/>
  <circle cx="4" cy="20" r="1" fill="rgba(115,186,245,1)"/>
  <circle cx="5" cy="20" r="1" fill="rgba(65,162,242,1)"/>
  <circle cx="6" cy="20" r="1" fill="rgba(65,162,242,1)"/>
  <circle cx="7" cy="20" r="1" fill="rgba(65,162,242,1)"/>
  <circle cx="8" cy="20" r="1" fill="rgba(65,162,242,1)"/>
  <circle cx="9" cy="20" r="1" fill="rgba(65,162,242,1)"/>
  <circle cx="10" cy="20" r="1" fill="rgba(95,177,244,1)"/>
  <circle cx="11" cy="20" r="1" fill="white"/>
  <circle cx="12" cy="20" r="1" fill="white"/>
  <circle cx="13" cy="20" r="1" fill="white"/>
  <circle cx="14" cy="20" r="1" fill="white"/>
  <circle cx="0" cy="21" r="1" fill="white"/>
  <circle cx="1" cy="21" r="1" fill="white"/>
  <circle cx="2" cy="21" r="1" fill="white"/>
  <circle cx="3" cy="21" r="1" fill="white"/>
  <circle cx="4" cy="21" r="1" fill="rgba(118,188,246,1)"/>
  <circle cx="5" cy="21" r="1" fill="rgba(65,162,242,1)"/>
  <circle cx="6" cy="21" r="1" fill="rgba(65,162,242,1)"/>
  <circle cx="7" cy="21" r="1" fill="rgba(65,162,242,1)"/>
  <circle cx="8" cy="21" r="1" fill="rgba(65,162,242,1)"/>
  <circle cx="9" cy="21" r="1" fill="rgba(65,162,242,1)"/>
  <circle cx="10" cy="21" r="1" fill="rgba(96,177,244,1)"/>
  <circle cx="11" cy="21" r="1" fill="white"/>
  <circle cx="12" cy="21" r="1" fill="white"/>
  <circle cx="13" cy="21" r="1" fill="white"/>
  <circle cx="14" cy="21" r="1" fill="white"/>
  <circle cx="0" cy="22" r="1" fill="white"/>
  <circle cx="1" cy="22" r="1" fill="white"/>
  <circle cx="2" cy="22" r="1" fill="white"/>
  <circle cx="3" cy="22" r="1" fill="white"/>
  <circle cx="4" cy="22" r="1" fill="rgba(121,189,246,1)"/>
  <circle cx="5" cy="22" r="1" fill="rgba(65,162,242,1)"/>
  <circle cx="6" cy="22" r="1" fill="rgba(65,162,242,1)"/>
  <circle cx="7" cy="22" r="1" fill="rgba(65,162,242,1)"/>
  <circle cx="8" cy="22" r="1" fill="rgba(65,162,242,1)"/>
  <circle cx="9" cy="22" r="1" fill="rgba(65,162,242,1)"/>
  <circle cx="10" cy="22" r="1" fill="rgba(97,178,244,1)"/>
  <circle cx="11" cy="22" r="1" fill="white"/>
  <circle cx="12" cy="22" r="1" fill="white"/>
  <circle cx="13" cy="22" r="1" fill="white"/>
  <circle cx="14" cy="22" r="1" fill="white"/>
  <circle cx="0" cy="23" r="1" fill="white"/>
  <circle cx="1" cy="23" r="1" fill="white"/>
  <circle cx="2" cy="23" r="1" fill="white"/>
  <circle cx="3" cy="23" r="1" fill="white"/>
  <circle cx="4" cy="23" r="1" fill="rgba(123,190,246,1)"/>
  <circle cx="5" cy="23" r="1" fill="rgba(65,162,242,1)"/>
  <circle cx="6" cy="23" r="1" fill="rgba(65,162,242,1)"/>
  <circle cx="7" cy="23" r="1" fill="rgba(65,162,242,1)"/>
  <circle cx="8" cy="23" r="1" fill="rgba(65,162,242,1)"/>
  <circle cx="9" cy="23" r="1" fill="rgba(65,162,242,1)"/>
  <circle cx="10" cy="23" r="1" fill="rgba(98,178,244,1)"/>
  <circle cx="11" cy="23" r="1" fill="white"/>
  <circle cx="12" cy="23" r="1" fill="white"/>
  <circle cx="13" cy="23" r="1" fill="white"/>
  <circle cx="14" cy="23" r="1" fill="white"/>
  <circle cx="0" cy="24" r="1" fill="white"/>
  <circle cx="1" cy="24" r="1" fill="white"/>
  <circle cx="2" cy="24" r="1" fill="white"/>
  <circle cx="3" cy="24" r="1" fill="white"/>
  <circle cx="4" cy="24" r="1" fill="rgba(127,192,246,1)"/>
  <circle cx="5" cy="24" r="1" fill="rgba(65,162,242,1)"/>
  <circle cx="6" cy="24" r="1" fill="rgba(65,162,242,1)"/>
  <circle cx="7" cy="24" r="1" fill="rgba(65,162,242,1)"/>
  <circle cx="8" cy="24" r="1" fill="rgba(65,162,242,1)"/>
  <circle cx="9" cy="24" r="1" fill="rgba(65,162,242,1)"/>
  <circle cx="10" cy="24" r="1" fill="rgba(94,176,244,1)"/>
  <circle cx="11" cy="24" r="1" fill="white"/>
  <circle cx="12" cy="24" r="1" fill="white"/>
  <circle cx="13" cy="24" r="1" fill="white"/>
  <circle cx="14" cy="24" r="1" fill="white"/>
  <circle cx="0" cy="25" r="1" fill="white"/>
  <circle cx="1" cy="25" r="1" fill="white"/>
  <circle cx="2" cy="25" r="1" fill="white"/>
  <circle cx="3" cy="25" r="1" fill="white"/>
  <circle cx="4" cy="25" r="1" fill="rgba(130,194,246,1)"/>
  <circle cx="5" cy="25" r="1" fill="rgba(65,162,242,1)"/>
  <circle cx="6" cy="25" r="1" fill="rgba(65,162,242,1)"/>
  <circle cx="7" cy="25" r="1" fill="rgba(65,162,242,1)"/>
  <circle cx="8" cy="25" r="1" fill="rgba(65,162,242,1)"/>
  <circle cx="9" cy="25" r="1" fill="rgba(65,162,242,1)"/>
  <circle cx="10" cy="25" r="1" fill="rgba(90,174,244,1)"/>
  <circle cx="11" cy="25" r="1" fill="white"/>
  <circle cx="12" cy="25" r="1" fill="white"/>
  <circle cx="13" cy="25" r="1" fill="white"/>
  <circle cx="14" cy="25" r="1" fill="white"/>
  <circle cx="0" cy="26" r="1" fill="white"/>
  <circle cx="1" cy="26" r="1" fill="white"/>
  <circle cx="2" cy="26" r="1" fill="white"/>
  <circle cx="3" cy="26" r="1" fill="white"/>
  <circle cx="4" cy="26" r="1" fill="rgba(132,195,247,1)"/>
  <circle cx="5" cy="26" r="1" fill="rgba(65,162,242,1)"/>
  <circle cx="6" cy="26" r="1" fill="rgba(65,162,242,1)"/>
  <circle cx="7" cy="26" r="1" fill="rgba(65,162,242,1)"/>
  <circle cx="8" cy="26" r="1" fill="rgba(65,162,242,1)"/>
  <circle cx="9" cy="26" r="1" fill="rgba(65,162,242,1)"/>
  <circle cx="10" cy="26" r="1" fill="rgba(85,172,243,1)"/>
  <circle cx="11" cy="26" r="1" fill="white"/>
  <circle cx="12" cy="26" r="1" fill="white"/>
  <circle cx="13" cy="26" r="1" fill="white"/>
  <circle cx="14" cy="26" r="1" fill="white"/>
  <circle cx="0" cy="27" r="1" fill="white"/>
  <circle cx="1" cy="27" r="1" fill="white"/>
  <circle cx="2" cy="27" r="1" fill="white"/>
  <circle cx="3" cy="27" r="1" fill="white"/>
  <circle cx="4" cy="27" r="1" fill="rgba(135,196,247,1)"/>
  <circle cx="5" cy="27" r="1" fill="rgba(65,162,242,1)"/>
  <circle cx="6" cy="27" r="1" fill="rgba(65,162,242,1)"/>
  <circle cx="7" cy="27" r="1" fill="rgba(65,162,242,1)"/>
  <circle cx="8" cy="27" r="1" fill="rgba(65,162,242,1)"/>
  <circle cx="9" cy="27" r="1" fill="rgba(65,162,242,1)"/>
  <circle cx="10" cy="27" r="1" fill="rgba(81,170,243,1)"/>
  <circle cx="11" cy="27" r="1" fill="white"/>
  <circle cx="12" cy="27" r="1" fill="white"/>
  <circle cx="13" cy="27" r="1" fill="white"/>
  <circle cx="14" cy="27" r="1" fill="white"/>
  <circle cx="0" cy="28" r="1" fill="white"/>
  <circle cx="1" cy="28" r="1" fill="white"/>
  <circle cx="2" cy="28" r="1" fill="white"/>
  <circle cx="3" cy="28" r="1" fill="white"/>
  <circle cx="4" cy="28" r="1" fill="rgba(138,198,247,1)"/>
  <circle cx="5" cy="28" r="1" fill="rgba(65,162,242,1)"/>
  <circle cx="6" cy="28" r="1" fill="rgba(65,162,242,1)"/>
  <circle cx="7" cy="28" r="1" fill="rgba(65,162,242,1)"/>
  <circle cx="8" cy="28" r="1" fill="rgba(65,162,242,1)"/>
  <circle cx="9" cy="28" r="1" fill="rgba(65,162,242,1)"/>
  <circle cx="10" cy="28" r="1" fill="rgba(76,167,243,1)"/>
  <circle cx="11" cy="28" r="1" fill="white"/>
  <circle cx="12" cy="28" r="1" fill="white"/>
  <circle cx="13" cy="28" r="1" fill="white"/>
  <circle cx="14" cy="28" r="1" fill="white"/>
  <circle cx="0" cy="29" r="1" fill="white"/>
  <circle cx="1" cy="29" r="1" fill="white"/>
  <circle cx="2" cy="29" r="1" fill="white"/>
  <circle cx="3" cy="29" r="1" fill="white"/>
  <circle cx="4" cy="29" r="1" fill="rgba(141,199,247,1)"/>
  <circle cx="5" cy="29" r="1" fill="rgba(65,162,242,1)"/>
  <circle cx="6" cy="29" r="1" fill="rgba(65,162,242,1)"/>
  <circle cx="7" cy="29" r="1" fill="rgba(65,162,242,1)"/>
  <circle cx="8" cy="29" r="1" fill="rgba(65,162,242,1)"/>
  <circle cx="9" cy="29" r="1" fill="rgba(65,162,242,1)"/>
  <circle cx="10" cy="29" r="1" fill="rgba(73,166,243,1)"/>
  <circle cx="11" cy="29" r="1" fill="white"/>
  <circle cx="12" cy="29" r="1" fill="white"/>
  <circle cx="13" cy="29" r="1" fill="white"/>
  <circle cx="14" cy="29" r="1" fill="white"/>
  <circle cx="0" cy="30" r="1" fill="white"/>
  <circle cx="1" cy="30" r="1" fill="white"/>
  <circle cx="2" cy="30" r="1" fill="white"/>
  <circle cx="3" cy="30" r="1" fill="white"/>
  <circle cx="4" cy="30" r="1" fill="rgba(144,201,247,1)"/>
  <circle cx="5" cy="30" r="1" fill="rgba(65,162,242,1)"/>
  <circle cx="6" cy="30" r="1" fill="rgba(65,162,242,1)"/>
  <circle cx="7" cy="30" r="1" fill="rgba(65,162,242,1)"/>
  <circle cx="8" cy="30" r="1" fill="rgba(65,162,242,1)"/>
  <circle cx="9" cy="30" r="1" fill="rgba(65,162,242,1)"/>
  <circle cx="10" cy="30" r="1" fill="rgba(72,165,242,1)"/>
  <circle cx="11" cy="30" r="1" fill="white"/>
  <circle cx="12" cy="30" r="1" fill="white"/>
  <circle cx="13" cy="30" r="1" fill="white"/>
  <circle cx="14" cy="30" r="1" fill="white"/>
  <circle cx="0" cy="31" r="1" fill="white"/>
  <circle cx="1" cy="31" r="1" fill="white"/>
  <circle cx="2" cy="31" r="1" fill="white"/>
  <circle cx="3" cy="31" r="1" fill="white"/>
  <circle cx="4" cy="31" r="1" fill="rgba(147,202,248,1)"/>
  <circle cx="5" cy="31" r="1" fill="rgba(65,162,242,1)"/>
  <circle cx="6" cy="31" r="1" fill="rgba(65,162,242,1)"/>
  <circle cx="7" cy="31" r="1" fill="rgba(65,162,242,1)"/>
  <circle cx="8" cy="31" r="1" fill="rgba(65,162,242,1)"/>
  <circle cx="9" cy="31" r="1" fill="rgba(65,162,242,1)"/>
  <circle cx="10" cy="31" r="1" fill="rgba(71,165,242,1)"/>
  <circle cx="11" cy="31" r="1" fill="white"/>
  <circle cx="12" cy="31" r="1" fill="white"/>
  <circle cx="13" cy="31" r="1" fill="white"/>
  <circle cx="14" cy="31" r="1" fill="white"/>
  <circle cx="0" cy="32" r="1" fill="white"/>
  <circle cx="1" cy="32" r="1" fill="white"/>
  <circle cx="2" cy="32" r="1" fill="white"/>
  <circle cx="3" cy="32" r="1" fill="white"/>
  <circle cx="4" cy="32" r="1" fill="rgba(151,204,248,1)"/>
  <circle cx="5" cy="32" r="1" fill="rgba(65,162,242,1)"/>
  <circle cx="6" cy="32" r="1" fill="rgba(65,162,242,1)"/>
  <circle cx="7" cy="32" r="1" fill="rgba(65,162,242,1)"/>
  <circle cx="8" cy="32" r="1" fill="rgba(65,162,242,1)"/>
  <circle cx="9" cy="32" r="1" fill="rgba(65,162,242,1)"/>
  <circle cx="10" cy="32" r="1" fill="rgba(69,164,242,1)"/>
  <circle cx="11" cy="32" r="1" fill="white"/>
  <circle cx="12" cy="32" r="1" fill="white"/>
  <circle cx="13" cy="32" r="1" fill="white"/>
  <circle cx="14" cy="32" r="1" fill="white"/>
  <circle cx="0" cy="33" r="1" fill="white"/>
  <circle cx="1" cy="33" r="1" fill="white"/>
  <circle cx="2" cy="33" r="1" fill="white"/>
  <circle cx="3" cy="33" r="1" fill="white"/>
  <circle cx="4" cy="33" r="1" fill="rgba(157,207,248,1)"/>
  <circle cx="5" cy="33" r="1" fill="rgba(65,162,242,1)"/>
  <circle cx="6" cy="33" r="1" fill="rgba(65,162,242,1)"/>
  <circle cx="7" cy="33" r="1" fill="rgba(65,162,242,1)"/>
  <circle cx="8" cy="33" r="1" fill="rgba(65,162,242,1)"/>
  <circle cx="9" cy="33" r="1" fill="rgba(65,162,242,1)"/>
  <circle cx="10" cy="33" r="1" fill="rgba(68,163,242,1)"/>
  <circle cx="11" cy="33" r="1" fill="white"/>
  <circle cx="12" cy="33" r="1" fill="white"/>
  <circle cx="13" cy="33" r="1" fill="white"/>
  <circle cx="14" cy="33" r="1" fill="white"/>
  <circle cx="0" cy="34" r="1" fill="white"/>
  <circle cx="1" cy="34" r="1" fill="white"/>
  <circle cx="2" cy="34" r="1" fill="white"/>
  <circle cx="3" cy="34" r="1" fill="white"/>
  <circle cx="4" cy="34" r="1" fill="rgba(162,209,249,1)"/>
  <circle cx="5" cy="34" r="1" fill="rgba(65,162,242,1)"/>
  <circle cx="6" cy="34" r="1" fill="rgba(65,162,242,1)"/>
  <circle cx="7" cy="34" r="1" fill="rgba(65,162,242,1)"/>
  <circle cx="8" cy="34" r="1" fill="rgba(65,162,242,1)"/>
  <circle cx="9" cy="34" r="1" fill="rgba(65,162,242,1)"/>
  <circle cx="10" cy="34" r="1" fill="rgba(66,163,242,1)"/>
  <circle cx="11" cy="34" r="1" fill="white"/>
  <circle cx="12" cy="34" r="1" fill="white"/>
  <circle cx="13" cy="34" r="1" fill="white"/>
  <circle cx="14" cy="34" r="1" fill="white"/>
  <circle cx="0" cy="35" r="1" fill="white"/>
  <circle cx="1" cy="35" r="1" fill="white"/>
  <circle cx="2" cy="35" r="1" fill="white"/>
  <circle cx="3" cy="35" r="1" fill="white"/>
  <circle cx="4" cy="35" r="1" fill="rgba(168,212,249,1)"/>
  <circle cx="5" cy="35" r="1" fill="rgba(65,162,242,1)"/>
  <circle cx="6" cy="35" r="1" fill="rgba(65,162,242,1)"/>
  <circle cx="7" cy="35" r="1" fill="rgba(65,162,242,1)"/>
  <circle cx="8" cy="35" r="1" fill="rgba(65,162,242,1)"/>
  <circle cx="9" cy="35" r="1" fill="rgba(65,162,242,1)"/>
  <circle cx="10" cy="35" r="1" fill="rgba(65,162,242,1)"/>
  <circle cx="11" cy="35" r="1" fill="white"/>
  <circle cx="12" cy="35" r="1" fill="white"/>
  <circle cx="13" cy="35" r="1" fill="white"/>
  <circle cx="14" cy="35" r="1" fill="white"/>
  <circle cx="0" cy="36" r="1" fill="white"/>
  <circle cx="1" cy="36" r="1" fill="white"/>
  <circle cx="2" cy="36" r="1" fill="white"/>
  <circle cx="3" cy="36" r="1" fill="white"/>
  <circle cx="4" cy="36" r="1" fill="rgba(173,215,249,1)"/>
  <circle cx="5" cy="36" r="1" fill="rgba(65,162,242,1)"/>
  <circle cx="6" cy="36" r="1" fill="rgba(65,162,242,1)"/>
  <circle cx="7" cy="36" r="1" fill="rgba(65,162,242,1)"/>
  <circle cx="8" cy="36" r="1" fill="rgba(65,162,242,1)"/>
  <circle cx="9" cy="36" r="1" fill="rgba(65,162,242,1)"/>
  <circle cx="10" cy="36" r="1" fill="rgba(65,162,242,1)"/>
  <circle cx="11" cy="36" r="1" fill="rgba(254,254,255,1)"/>
  <circle cx="12" cy="36" r="1" fill="white"/>
  <circle cx="13" cy="36" r="1" fill="white"/>
  <circle cx="14" cy="36" r="1" fill="white"/>
  <circle cx="0" cy="37" r="1" fill="white"/>
  <circle cx="1" cy="37" r="1" fill="white"/>
  <circle cx="2" cy="37" r="1" fill="white"/>
  <circle cx="3" cy="37" r="1" fill="white"/>
  <circle cx="4" cy="37" r="1" fill="rgba(177,217,250,1)"/>
  <circle cx="5" cy="37" r="1" fill="rgba(65,162,242,1)"/>
  <circle cx="6" cy="37" r="1" fill="rgba(65,162,242,1)"/>
  <circle cx="7" cy="37" r="1" fill="rgba(65,162,242,1)"/>
  <circle cx="8" cy="37" r="1" fill="rgba(65,162,242,1)"/>
  <circle cx="9" cy="37" r="1" fill="rgba(65,162,242,1)"/>
  <circle cx="10" cy="37" r="1" fill="rgba(65,162,242,1)"/>
  <circle cx="11" cy="37" r="1" fill="rgba(252,254,255,1)"/>
  <circle cx="12" cy="37" r="1" fill="white"/>
  <circle cx="13" cy="37" r="1" fill="white"/>
  <circle cx="14" cy="37" r="1" fill="white"/>
  <circle cx="0" cy="38" r="1" fill="white"/>
  <circle cx="1" cy="38" r="1" fill="white"/>
  <circle cx="2" cy="38" r="1" fill="white"/>
  <circle cx="3" cy="38" r="1" fill="white"/>
  <circle cx="4" cy="38" r="1" fill="rgba(178,217,250,1)"/>
  <circle cx="5" cy="38" r="1" fill="rgba(65,162,242,1)"/>
  <circle cx="6" cy="38" r="1" fill="rgba(65,162,242,1)"/>
  <circle cx="7" cy="38" r="1" fill="rgba(65,162,242,1)"/>
  <circle cx="8" cy="38" r="1" fill="rgba(65,162,242,1)"/>
  <circle cx="9" cy="38" r="1" fill="rgba(65,162,242,1)"/>
  <circle cx="10" cy="38" r="1" fill="rgba(65,162,242,1)"/>
  <circle cx="11" cy="38" r="1" fill="rgba(251,253,255,1)"/>
  <circle cx="12" cy="38" r="1" fill="white"/>
  <circle cx="13" cy="38" r="1" fill="white"/>
  <circle cx="14" cy="38" r="1" fill="white"/>
  <circle cx="0" cy="39" r="1" fill="white"/>
  <circle cx="1" cy="39" r="1" fill="white"/>
  <circle cx="2" cy="39" r="1" fill="white"/>
  <circle cx="3" cy="39" r="1" fill="white"/>
  <circle cx="4" cy="39" r="1" fill="rgba(176,216,250,1)"/>
  <circle cx="5" cy="39" r="1" fill="rgba(65,162,242,1)"/>
  <circle cx="6" cy="39" r="1" fill="rgba(65,162,242,1)"/>
  <circle cx="7" cy="39" r="1" fill="rgba(65,162,242,1)"/>
  <circle cx="8" cy="39" r="1" fill="rgba(65,162,242,1)"/>
  <circle cx="9" cy="39" r="1" fill="rgba(65,162,242,1)"/>
  <circle cx="10" cy="39" r="1" fill="rgba(65,162,242,1)"/>
  <circle cx="11" cy="39" r="1" fill="rgba(249,252,255,1)"/>
  <circle cx="12" cy="39" r="1" fill="white"/>
  <circle cx="13" cy="39" r="1" fill="white"/>
  <circle cx="14" cy="39" r="1" fill="white"/>
  <circle cx="0" cy="40" r="1" fill="white"/>
  <circle cx="1" cy="40" r="1" fill="white"/>
  <circle cx="2" cy="40" r="1" fill="white"/>
  <circle cx="3" cy="40" r="1" fill="white"/>
  <circle cx="4" cy="40" r="1" fill="rgba(164,211,249,1)"/>
  <circle cx="5" cy="40" r="1" fill="rgba(65,162,242,1)"/>
  <circle cx="6" cy="40" r="1" fill="rgba(65,162,242,1)"/>
  <circle cx="7" cy="40" r="1" fill="rgba(65,162,242,1)"/>
  <circle cx="8" cy="40" r="1" fill="rgba(65,162,242,1)"/>
  <circle cx="9" cy="40" r="1" fill="rgba(65,162,242,1)"/>
  <circle cx="10" cy="40" r="1" fill="rgba(65,162,242,1)"/>
  <circle cx="11" cy="40" r="1" fill="rgba(248,252,255,1)"/>
  <circle cx="12" cy="40" r="1" fill="white"/>
  <circle cx="13" cy="40" r="1" fill="white"/>
  <circle cx="14" cy="40" r="1" fill="white"/>
  <circle cx="0" cy="41" r="1" fill="white"/>
  <circle cx="1" cy="41" r="1" fill="white"/>
  <circle cx="2" cy="41" r="1" fill="white"/>
  <circle cx="3" cy="41" r="1" fill="white"/>
  <circle cx="4" cy="41" r="1" fill="rgba(152,205,248,1)"/>
  <circle cx="5" cy="41" r="1" fill="rgba(65,162,242,1)"/>
  <circle cx="6" cy="41" r="1" fill="rgba(65,162,242,1)"/>
  <circle cx="7" cy="41" r="1" fill="rgba(65,162,242,1)"/>
  <circle cx="8" cy="41" r="1" fill="rgba(65,162,242,1)"/>
  <circle cx="9" cy="41" r="1" fill="rgba(65,162,242,1)"/>
  <circle cx="10" cy="41" r="1" fill="rgba(65,162,242,1)"/>
  <circle cx="11" cy="41" r="1" fill="rgba(247,251,254,1)"/>
  <circle cx="12" cy="41" r="1" fill="white"/>
  <circle cx="13" cy="41" r="1" fill="white"/>
  <circle cx="14" cy="41" r="1" fill="white"/>
  <circle cx="0" cy="42" r="1" fill="white"/>
  <circle cx="1" cy="42" r="1" fill="white"/>
  <circle cx="2" cy="42" r="1" fill="white"/>
  <circle cx="3" cy="42" r="1" fill="white"/>
  <circle cx="4" cy="42" r="1" fill="rgba(114,186,245,1)"/>
  <circle cx="5" cy="42" r="1" fill="rgba(65,162,242,1)"/>
  <circle cx="6" cy="42" r="1" fill="rgba(65,162,242,1)"/>
  <circle cx="7" cy="42" r="1" fill="rgba(65,162,242,1)"/>
  <circle cx="8" cy="42" r="1" fill="rgba(65,162,242,1)"/>
  <circle cx="9" cy="42" r="1" fill="rgba(65,162,242,1)"/>
  <circle cx="10" cy="42" r="1" fill="rgba(65,162,242,1)"/>
  <circle cx="11" cy="42" r="1" fill="rgba(245,250,254,1)"/>
  <circle cx="12" cy="42" r="1" fill="white"/>
  <circle cx="13" cy="42" r="1" fill="white"/>
  <circle cx="14" cy="42" r="1" fill="white"/>
  <circle cx="0" cy="43" r="1" fill="white"/>
  <circle cx="1" cy="43" r="1" fill="white"/>
  <circle cx="2" cy="43" r="1" fill="white"/>
  <circle cx="3" cy="43" r="1" fill="rgba(227,241,253,1)"/>
  <circle cx="4" cy="43" r="1" fill="rgba(69,164,242,1)"/>
  <circle cx="5" cy="43" r="1" fill="rgba(65,162,242,1)"/>
  <circle cx="6" cy="43" r="1" fill="rgba(65,162,242,1)"/>
  <circle cx="7" cy="43" r="1" fill="rgba(65,162,242,1)"/>
  <circle cx="8" cy="43" r="1" fill="rgba(65,162,242,1)"/>
  <circle cx="9" cy="43" r="1" fill="rgba(65,162,242,1)"/>
  <circle cx="10" cy="43" r="1" fill="rgba(65,162,242,1)"/>
  <circle cx="11" cy="43" r="1" fill="rgba(227,242,253,1)"/>
  <circle cx="12" cy="43" r="1" fill="white"/>
  <circle cx="13" cy="43" r="1" fill="white"/>
  <circle cx="14" cy="43" r="1" fill="white"/>
  <circle cx="0" cy="44" r="1" fill="white"/>
  <circle cx="1" cy="44" r="1" fill="white"/>
  <circle cx="2" cy="44" r="1" fill="rgba(237,246,254,1)"/>
  <circle cx="3" cy="44" r="1" fill="rgba(108,183,245,1)"/>
  <circle cx="4" cy="44" r="1" fill="rgba(65,162,242,1)"/>
  <circle cx="5" cy="44" r="1" fill="rgba(65,162,242,1)"/>
  <circle cx="6" cy="44" r="1" fill="rgba(65,162,242,1)"/>
  <circle cx="7" cy="44" r="1" fill="rgba(65,162,242,1)"/>
  <circle cx="8" cy="44" r="1" fill="rgba(65,162,242,1)"/>
  <circle cx="9" cy="44" r="1" fill="rgba(65,162,242,1)"/>
  <circle cx="10" cy="44" r="1" fill="rgba(65,162,242,1)"/>
  <circle cx="11" cy="44" r="1" fill="rgba(119,188,246,1)"/>
  <circle cx="12" cy="44" r="1" fill="rgba(214,235,252,1)"/>
  <circle cx="13" cy="44" r="1" fill="rgba(246,251,254,1)"/>
  <circle cx="14" cy="44" r="1" fill="white"/>
  <circle cx="0" cy="45" r="1" fill="rgba(147,202,248,1)"/>
  <circle cx="1" cy="45" r="1" fill="rgba(89,174,244,1)"/>
  <circle cx="2" cy="45" r="1" fill="rgba(66,163,242,1)"/>
  <circle cx="3" cy="45" r="1" fill="rgba(65,162,242,1)"/>
  <circle cx="4" cy="45" r="1" fill="rgba(65,162,242,1)"/>
  <circle cx="5" cy="45" r="1" fill="rgba(65,162,242,1)"/>
  <circle cx="6" cy="45" r="1" fill="rgba(65,162,242,1)"/>
  <circle cx="7" cy="45" r="1" fill="rgba(65,162,242,1)"/>
  <circle cx="8" cy="45" r="1" fill="rgba(65,162,242,1)"/>
  <circle cx="9" cy="45" r="1" fill="rgba(65,162,242,1)"/>
  <circle cx="10" cy="45" r="1" fill="rgba(65,162,242,1)"/>
  <circle cx="11" cy="45" r="1" fill="rgba(65,162,242,1)"/>
  <circle cx="12" cy="45" r="1" fill="rgba(65,162,242,1)"/>
  <circle cx="13" cy="45" r="1" fill="rgba(68,163,242,1)"/>
  <circle cx="14" cy="45" r="1" fill="rgba(173,215,249,1)"/>
  <circle cx="0" cy="46" r="1" fill="rgba(84,171,243,1)"/>
  <circle cx="1" cy="46" r="1" fill="rgba(65,162,242,1)"/>
  <circle cx="2" cy="46" r="1" fill="rgba(65,162,242,1)"/>
  <circle cx="3" cy="46" r="1" fill="rgba(65,162,242,1)"/>
  <circle cx="4" cy="46" r="1" fill="rgba(65,162,242,1)"/>
  <circle cx="5" cy="46" r="1" fill="rgba(65,162,242,1)"/>
  <circle cx="6" cy="46" r="1" fill="rgba(65,162,242,1)"/>
  <circle cx="7" cy="46" r="1" fill="rgba(65,162,242,1)"/>
  <circle cx="8" cy="46" r="1" fill="rgba(65,162,242,1)"/>
  <circle cx="9" cy="46" r="1" fill="rgba(65,162,242,1)"/>
  <circle cx="10" cy="46" r="1" fill="rgba(65,162,242,1)"/>
  <circle cx="11" cy="46" r="1" fill="rgba(65,162,242,1)"/>
  <circle cx="12" cy="46" r="1" fill="rgba(65,162,242,1)"/>
  <circle cx="13" cy="46" r="1" fill="rgba(65,162,242,1)"/>
  <circle cx="14" cy="46" r="1" fill="rgba(110,184,245,1)"/>
  <circle cx="0" cy="47" r="1" fill="rgba(231,243,253,1)"/>
  <circle cx="1" cy="47" r="1" fill="rgba(207,231,252,1)"/>
  <circle cx="2" cy="47" r="1" fill="rgba(200,228,251,1)"/>
  <circle cx="3" cy="47" r="1" fill="rgba(192,224,251,1)"/>
  <circle cx="4" cy="47" r="1" fill="rgba(180,218,250,1)"/>
  <circle cx="5" cy="47" r="1" fill="rgba(173,215,249,1)"/>
  <circle cx="6" cy="47" r="1" fill="rgba(166,211,249,1)"/>
  <circle cx="7" cy="47" r="1" fill="rgba(154,205,248,1)"/>
  <circle cx="8" cy="47" r="1" fill="rgba(146,202,248,1)"/>
  <circle cx="9" cy="47" r="1" fill="rgba(141,199,247,1)"/>
  <circle cx="10" cy="47" r="1" fill="rgba(141,199,247,1)"/>
  <circle cx="11" cy="47" r="1" fill="rgba(141,199,247,1)"/>
  <circle cx="12" cy="47" r="1" fill="rgba(141,199,247,1)"/>
  <circle cx="13" cy="47" r="1" fill="rgba(141,199,247,1)"/>
  <circle cx="14" cy="47" r="1" fill="rgba(200,228,251,1)"/>
</svg>
