<?xml version="1.0" standalone="no"?>
<!DOCTYPE svg PUBLIC "-//W3C//DTD SVG 20010904//EN"
  "http://www.w3.org/TR/2001/REC-SVG-20010904/DTD/svg10.dtd">
<svg width="16" height="36">
  <circle cx="0" cy="0" r="1" fill="white"/>
  <circle cx="1" cy="0" r="1" fill="white"/>
  <circle cx="2" cy="0" r="1" fill="white"/>
  <circle cx="3" cy="0" r="1" fill="white"/>
  <circle cx="4" cy="0" r="1" fill="white"/>
  <circle cx="5" cy="0" r="1" fill="rgba(218,241,221,1)"/>
  <circle cx="6" cy="0" r="1" fill="rgba(106,199,119,1)"/>
  <circle cx="7" cy="0" r="1" fill="rgba(106,199,119,1)"/>
  <circle cx="8" cy="0" r="1" fill="rgba(106,199,119,1)"/>
  <circle cx="9" cy="0" r="1" fill="rgba(106,199,119,1)"/>
  <circle cx="10" cy="0" r="1" fill="rgba(143,213,153,1)"/>
  <circle cx="11" cy="0" r="1" fill="white"/>
  <circle cx="12" cy="0" r="1" fill="white"/>
  <circle cx="13" cy="0" r="1" fill="white"/>
  <circle cx="14" cy="0" r="1" fill="white"/>
  <circle cx="15" cy="0" r="1" fill="white"/>
  <circle cx="0" cy="1" r="1" fill="white"/>
  <circle cx="1" cy="1" r="1" fill="white"/>
  <circle cx="2" cy="1" r="1" fill="white"/>
  <circle cx="3" cy="1" r="1" fill="white"/>
  <circle cx="4" cy="1" r="1" fill="white"/>
  <circle cx="5" cy="1" r="1" fill="rgba(205,236,210,1)"/>
  <circle cx="6" cy="1" r="1" fill="rgba(57,181,74,1)"/>
  <circle cx="7" cy="1" r="1" fill="rgba(57,181,74,1)"/>
  <circle cx="8" cy="1" r="1" fill="rgba(57,181,74,1)"/>
  <circle cx="9" cy="1" r="1" fill="rgba(57,181,74,1)"/>
  <circle cx="10" cy="1" r="1" fill="rgba(106,199,119,1)"/>
  <circle cx="11" cy="1" r="1" fill="white"/>
  <circle cx="12" cy="1" r="1" fill="white"/>
  <circle cx="13" cy="1" r="1" fill="white"/>
  <circle cx="14" cy="1" r="1" fill="white"/>
  <circle cx="15" cy="1" r="1" fill="white"/>
  <circle cx="0" cy="2" r="1" fill="white"/>
  <circle cx="1" cy="2" r="1" fill="white"/>
  <circle cx="2" cy="2" r="1" fill="white"/>
  <circle cx="3" cy="2" r="1" fill="white"/>
  <circle cx="4" cy="2" r="1" fill="white"/>
  <circle cx="5" cy="2" r="1" fill="rgba(205,236,210,1)"/>
  <circle cx="6" cy="2" r="1" fill="rgba(57,181,74,1)"/>
  <circle cx="7" cy="2" r="1" fill="rgba(57,181,74,1)"/>
  <circle cx="8" cy="2" r="1" fill="rgba(57,181,74,1)"/>
  <circle cx="9" cy="2" r="1" fill="rgba(57,181,74,1)"/>
  <circle cx="10" cy="2" r="1" fill="rgba(106,199,119,1)"/>
  <circle cx="11" cy="2" r="1" fill="white"/>
  <circle cx="12" cy="2" r="1" fill="white"/>
  <circle cx="13" cy="2" r="1" fill="white"/>
  <circle cx="14" cy="2" r="1" fill="white"/>
  <circle cx="15" cy="2" r="1" fill="white"/>
  <circle cx="0" cy="3" r="1" fill="white"/>
  <circle cx="1" cy="3" r="1" fill="white"/>
  <circle cx="2" cy="3" r="1" fill="white"/>
  <circle cx="3" cy="3" r="1" fill="white"/>
  <circle cx="4" cy="3" r="1" fill="white"/>
  <circle cx="5" cy="3" r="1" fill="rgba(205,236,210,1)"/>
  <circle cx="6" cy="3" r="1" fill="rgba(57,181,74,1)"/>
  <circle cx="7" cy="3" r="1" fill="rgba(57,181,74,1)"/>
  <circle cx="8" cy="3" r="1" fill="rgba(57,181,74,1)"/>
  <circle cx="9" cy="3" r="1" fill="rgba(57,181,74,1)"/>
  <circle cx="10" cy="3" r="1" fill="rgba(106,199,119,1)"/>
  <circle cx="11" cy="3" r="1" fill="white"/>
  <circle cx="12" cy="3" r="1" fill="white"/>
  <circle cx="13" cy="3" r="1" fill="white"/>
  <circle cx="14" cy="3" r="1" fill="white"/>
  <circle cx="15" cy="3" r="1" fill="white"/>
  <circle cx="0" cy="4" r="1" fill="white"/>
  <circle cx="1" cy="4" r="1" fill="white"/>
  <circle cx="2" cy="4" r="1" fill="white"/>
  <circle cx="3" cy="4" r="1" fill="white"/>
  <circle cx="4" cy="4" r="1" fill="white"/>
  <circle cx="5" cy="4" r="1" fill="rgba(205,236,210,1)"/>
  <circle cx="6" cy="4" r="1" fill="rgba(57,181,74,1)"/>
  <circle cx="7" cy="4" r="1" fill="rgba(57,181,74,1)"/>
  <circle cx="8" cy="4" r="1" fill="rgba(57,181,74,1)"/>
  <circle cx="9" cy="4" r="1" fill="rgba(57,181,74,1)"/>
  <circle cx="10" cy="4" r="1" fill="rgba(106,199,119,1)"/>
  <circle cx="11" cy="4" r="1" fill="white"/>
  <circle cx="12" cy="4" r="1" fill="white"/>
  <circle cx="13" cy="4" r="1" fill="white"/>
  <circle cx="14" cy="4" r="1" fill="white"/>
  <circle cx="15" cy="4" r="1" fill="white"/>
  <circle cx="0" cy="5" r="1" fill="rgba(218,241,221,1)"/>
  <circle cx="1" cy="5" r="1" fill="rgba(106,199,119,1)"/>
  <circle cx="2" cy="5" r="1" fill="rgba(106,199,119,1)"/>
  <circle cx="3" cy="5" r="1" fill="rgba(106,199,119,1)"/>
  <circle cx="4" cy="5" r="1" fill="rgba(106,199,119,1)"/>
  <circle cx="5" cy="5" r="1" fill="rgba(93,195,107,1)"/>
  <circle cx="6" cy="5" r="1" fill="rgba(57,181,74,1)"/>
  <circle cx="7" cy="5" r="1" fill="rgba(57,181,74,1)"/>
  <circle cx="8" cy="5" r="1" fill="rgba(57,181,74,1)"/>
  <circle cx="9" cy="5" r="1" fill="rgba(57,181,74,1)"/>
  <circle cx="10" cy="5" r="1" fill="rgba(106,199,119,1)"/>
  <circle cx="11" cy="5" r="1" fill="white"/>
  <circle cx="12" cy="5" r="1" fill="white"/>
  <circle cx="13" cy="5" r="1" fill="white"/>
  <circle cx="14" cy="5" r="1" fill="white"/>
  <circle cx="15" cy="5" r="1" fill="white"/>
  <circle cx="0" cy="6" r="1" fill="rgba(205,236,210,1)"/>
  <circle cx="1" cy="6" r="1" fill="rgba(57,181,74,1)"/>
  <circle cx="2" cy="6" r="1" fill="rgba(57,181,74,1)"/>
  <circle cx="3" cy="6" r="1" fill="rgba(57,181,74,1)"/>
  <circle cx="4" cy="6" r="1" fill="rgba(57,181,74,1)"/>
  <circle cx="5" cy="6" r="1" fill="rgba(57,181,74,1)"/>
  <circle cx="6" cy="6" r="1" fill="rgba(57,181,74,1)"/>
  <circle cx="7" cy="6" r="1" fill="rgba(57,181,74,1)"/>
  <circle cx="8" cy="6" r="1" fill="rgba(57,181,74,1)"/>
  <circle cx="9" cy="6" r="1" fill="rgba(57,181,74,1)"/>
  <circle cx="10" cy="6" r="1" fill="rgba(106,199,119,1)"/>
  <circle cx="11" cy="6" r="1" fill="white"/>
  <circle cx="12" cy="6" r="1" fill="white"/>
  <circle cx="13" cy="6" r="1" fill="white"/>
  <circle cx="14" cy="6" r="1" fill="white"/>
  <circle cx="15" cy="6" r="1" fill="white"/>
  <circle cx="0" cy="7" r="1" fill="rgba(205,236,210,1)"/>
  <circle cx="1" cy="7" r="1" fill="rgba(57,181,74,1)"/>
  <circle cx="2" cy="7" r="1" fill="rgba(57,181,74,1)"/>
  <circle cx="3" cy="7" r="1" fill="rgba(57,181,74,1)"/>
  <circle cx="4" cy="7" r="1" fill="rgba(57,181,74,1)"/>
  <circle cx="5" cy="7" r="1" fill="rgba(57,181,74,1)"/>
  <circle cx="6" cy="7" r="1" fill="rgba(57,181,74,1)"/>
  <circle cx="7" cy="7" r="1" fill="rgba(57,181,74,1)"/>
  <circle cx="8" cy="7" r="1" fill="rgba(57,181,74,1)"/>
  <circle cx="9" cy="7" r="1" fill="rgba(57,181,74,1)"/>
  <circle cx="10" cy="7" r="1" fill="rgba(106,199,119,1)"/>
  <circle cx="11" cy="7" r="1" fill="white"/>
  <circle cx="12" cy="7" r="1" fill="white"/>
  <circle cx="13" cy="7" r="1" fill="white"/>
  <circle cx="14" cy="7" r="1" fill="white"/>
  <circle cx="15" cy="7" r="1" fill="white"/>
  <circle cx="0" cy="8" r="1" fill="rgba(205,236,210,1)"/>
  <circle cx="1" cy="8" r="1" fill="rgba(57,181,74,1)"/>
  <circle cx="2" cy="8" r="1" fill="rgba(57,181,74,1)"/>
  <circle cx="3" cy="8" r="1" fill="rgba(57,181,74,1)"/>
  <circle cx="4" cy="8" r="1" fill="rgba(57,181,74,1)"/>
  <circle cx="5" cy="8" r="1" fill="rgba(57,181,74,1)"/>
  <circle cx="6" cy="8" r="1" fill="rgba(57,181,74,1)"/>
  <circle cx="7" cy="8" r="1" fill="rgba(57,181,74,1)"/>
  <circle cx="8" cy="8" r="1" fill="rgba(57,181,74,1)"/>
  <circle cx="9" cy="8" r="1" fill="rgba(57,181,74,1)"/>
  <circle cx="10" cy="8" r="1" fill="rgba(106,199,119,1)"/>
  <circle cx="11" cy="8" r="1" fill="white"/>
  <circle cx="12" cy="8" r="1" fill="white"/>
  <circle cx="13" cy="8" r="1" fill="white"/>
  <circle cx="14" cy="8" r="1" fill="white"/>
  <circle cx="15" cy="8" r="1" fill="white"/>
  <circle cx="0" cy="9" r="1" fill="rgba(205,236,210,1)"/>
  <circle cx="1" cy="9" r="1" fill="rgba(57,181,74,1)"/>
  <circle cx="2" cy="9" r="1" fill="rgba(57,181,74,1)"/>
  <circle cx="3" cy="9" r="1" fill="rgba(57,181,74,1)"/>
  <circle cx="4" cy="9" r="1" fill="rgba(57,181,74,1)"/>
  <circle cx="5" cy="9" r="1" fill="rgba(57,181,74,1)"/>
  <circle cx="6" cy="9" r="1" fill="rgba(57,181,74,1)"/>
  <circle cx="7" cy="9" r="1" fill="rgba(57,181,74,1)"/>
  <circle cx="8" cy="9" r="1" fill="rgba(57,181,74,1)"/>
  <circle cx="9" cy="9" r="1" fill="rgba(57,181,74,1)"/>
  <circle cx="10" cy="9" r="1" fill="rgba(106,199,119,1)"/>
  <circle cx="11" cy="9" r="1" fill="white"/>
  <circle cx="12" cy="9" r="1" fill="white"/>
  <circle cx="13" cy="9" r="1" fill="white"/>
  <circle cx="14" cy="9" r="1" fill="white"/>
  <circle cx="15" cy="9" r="1" fill="white"/>
  <circle cx="0" cy="10" r="1" fill="rgba(243,250,244,1)"/>
  <circle cx="1" cy="10" r="1" fill="rgba(205,236,210,1)"/>
  <circle cx="2" cy="10" r="1" fill="rgba(205,236,210,1)"/>
  <circle cx="3" cy="10" r="1" fill="rgba(205,236,210,1)"/>
  <circle cx="4" cy="10" r="1" fill="rgba(205,236,210,1)"/>
  <circle cx="5" cy="10" r="1" fill="rgba(168,222,176,1)"/>
  <circle cx="6" cy="10" r="1" fill="rgba(57,181,74,1)"/>
  <circle cx="7" cy="10" r="1" fill="rgba(57,181,74,1)"/>
  <circle cx="8" cy="10" r="1" fill="rgba(57,181,74,1)"/>
  <circle cx="9" cy="10" r="1" fill="rgba(57,181,74,1)"/>
  <circle cx="10" cy="10" r="1" fill="rgba(106,199,119,1)"/>
  <circle cx="11" cy="10" r="1" fill="white"/>
  <circle cx="12" cy="10" r="1" fill="white"/>
  <circle cx="13" cy="10" r="1" fill="white"/>
  <circle cx="14" cy="10" r="1" fill="white"/>
  <circle cx="15" cy="10" r="1" fill="white"/>
  <circle cx="0" cy="11" r="1" fill="white"/>
  <circle cx="1" cy="11" r="1" fill="white"/>
  <circle cx="2" cy="11" r="1" fill="white"/>
  <circle cx="3" cy="11" r="1" fill="white"/>
  <circle cx="4" cy="11" r="1" fill="white"/>
  <circle cx="5" cy="11" r="1" fill="rgba(205,236,210,1)"/>
  <circle cx="6" cy="11" r="1" fill="rgba(57,181,74,1)"/>
  <circle cx="7" cy="11" r="1" fill="rgba(57,181,74,1)"/>
  <circle cx="8" cy="11" r="1" fill="rgba(57,181,74,1)"/>
  <circle cx="9" cy="11" r="1" fill="rgba(57,181,74,1)"/>
  <circle cx="10" cy="11" r="1" fill="rgba(106,199,119,1)"/>
  <circle cx="11" cy="11" r="1" fill="white"/>
  <circle cx="12" cy="11" r="1" fill="white"/>
  <circle cx="13" cy="11" r="1" fill="white"/>
  <circle cx="14" cy="11" r="1" fill="white"/>
  <circle cx="15" cy="11" r="1" fill="white"/>
  <circle cx="0" cy="12" r="1" fill="white"/>
  <circle cx="1" cy="12" r="1" fill="white"/>
  <circle cx="2" cy="12" r="1" fill="white"/>
  <circle cx="3" cy="12" r="1" fill="white"/>
  <circle cx="4" cy="12" r="1" fill="white"/>
  <circle cx="5" cy="12" r="1" fill="rgba(205,236,210,1)"/>
  <circle cx="6" cy="12" r="1" fill="rgba(57,181,74,1)"/>
  <circle cx="7" cy="12" r="1" fill="rgba(57,181,74,1)"/>
  <circle cx="8" cy="12" r="1" fill="rgba(57,181,74,1)"/>
  <circle cx="9" cy="12" r="1" fill="rgba(57,181,74,1)"/>
  <circle cx="10" cy="12" r="1" fill="rgba(106,199,119,1)"/>
  <circle cx="11" cy="12" r="1" fill="white"/>
  <circle cx="12" cy="12" r="1" fill="white"/>
  <circle cx="13" cy="12" r="1" fill="white"/>
  <circle cx="14" cy="12" r="1" fill="white"/>
  <circle cx="15" cy="12" r="1" fill="white"/>
  <circle cx="0" cy="13" r="1" fill="white"/>
  <circle cx="1" cy="13" r="1" fill="white"/>
  <circle cx="2" cy="13" r="1" fill="white"/>
  <circle cx="3" cy="13" r="1" fill="white"/>
  <circle cx="4" cy="13" r="1" fill="white"/>
  <circle cx="5" cy="13" r="1" fill="rgba(205,236,210,1)"/>
  <circle cx="6" cy="13" r="1" fill="rgba(57,181,74,1)"/>
  <circle cx="7" cy="13" r="1" fill="rgba(57,181,74,1)"/>
  <circle cx="8" cy="13" r="1" fill="rgba(57,181,74,1)"/>
  <circle cx="9" cy="13" r="1" fill="rgba(57,181,74,1)"/>
  <circle cx="10" cy="13" r="1" fill="rgba(106,199,119,1)"/>
  <circle cx="11" cy="13" r="1" fill="white"/>
  <circle cx="12" cy="13" r="1" fill="white"/>
  <circle cx="13" cy="13" r="1" fill="white"/>
  <circle cx="14" cy="13" r="1" fill="white"/>
  <circle cx="15" cy="13" r="1" fill="white"/>
  <circle cx="0" cy="14" r="1" fill="white"/>
  <circle cx="1" cy="14" r="1" fill="white"/>
  <circle cx="2" cy="14" r="1" fill="white"/>
  <circle cx="3" cy="14" r="1" fill="white"/>
  <circle cx="4" cy="14" r="1" fill="white"/>
  <circle cx="5" cy="14" r="1" fill="rgba(205,236,210,1)"/>
  <circle cx="6" cy="14" r="1" fill="rgba(57,181,74,1)"/>
  <circle cx="7" cy="14" r="1" fill="rgba(57,181,74,1)"/>
  <circle cx="8" cy="14" r="1" fill="rgba(57,181,74,1)"/>
  <circle cx="9" cy="14" r="1" fill="rgba(57,181,74,1)"/>
  <circle cx="10" cy="14" r="1" fill="rgba(106,199,119,1)"/>
  <circle cx="11" cy="14" r="1" fill="white"/>
  <circle cx="12" cy="14" r="1" fill="white"/>
  <circle cx="13" cy="14" r="1" fill="white"/>
  <circle cx="14" cy="14" r="1" fill="white"/>
  <circle cx="15" cy="14" r="1" fill="white"/>
  <circle cx="0" cy="15" r="1" fill="white"/>
  <circle cx="1" cy="15" r="1" fill="white"/>
  <circle cx="2" cy="15" r="1" fill="white"/>
  <circle cx="3" cy="15" r="1" fill="white"/>
  <circle cx="4" cy="15" r="1" fill="white"/>
  <circle cx="5" cy="15" r="1" fill="rgba(205,236,210,1)"/>
  <circle cx="6" cy="15" r="1" fill="rgba(57,181,74,1)"/>
  <circle cx="7" cy="15" r="1" fill="rgba(57,181,74,1)"/>
  <circle cx="8" cy="15" r="1" fill="rgba(57,181,74,1)"/>
  <circle cx="9" cy="15" r="1" fill="rgba(57,181,74,1)"/>
  <circle cx="10" cy="15" r="1" fill="rgba(106,199,119,1)"/>
  <circle cx="11" cy="15" r="1" fill="white"/>
  <circle cx="12" cy="15" r="1" fill="white"/>
  <circle cx="13" cy="15" r="1" fill="white"/>
  <circle cx="14" cy="15" r="1" fill="white"/>
  <circle cx="15" cy="15" r="1" fill="white"/>
  <circle cx="0" cy="16" r="1" fill="white"/>
  <circle cx="1" cy="16" r="1" fill="white"/>
  <circle cx="2" cy="16" r="1" fill="white"/>
  <circle cx="3" cy="16" r="1" fill="white"/>
  <circle cx="4" cy="16" r="1" fill="white"/>
  <circle cx="5" cy="16" r="1" fill="rgba(205,236,210,1)"/>
  <circle cx="6" cy="16" r="1" fill="rgba(57,181,74,1)"/>
  <circle cx="7" cy="16" r="1" fill="rgba(57,181,74,1)"/>
  <circle cx="8" cy="16" r="1" fill="rgba(57,181,74,1)"/>
  <circle cx="9" cy="16" r="1" fill="rgba(57,181,74,1)"/>
  <circle cx="10" cy="16" r="1" fill="rgba(106,199,119,1)"/>
  <circle cx="11" cy="16" r="1" fill="white"/>
  <circle cx="12" cy="16" r="1" fill="white"/>
  <circle cx="13" cy="16" r="1" fill="white"/>
  <circle cx="14" cy="16" r="1" fill="white"/>
  <circle cx="15" cy="16" r="1" fill="white"/>
  <circle cx="0" cy="17" r="1" fill="white"/>
  <circle cx="1" cy="17" r="1" fill="white"/>
  <circle cx="2" cy="17" r="1" fill="white"/>
  <circle cx="3" cy="17" r="1" fill="white"/>
  <circle cx="4" cy="17" r="1" fill="white"/>
  <circle cx="5" cy="17" r="1" fill="rgba(205,236,210,1)"/>
  <circle cx="6" cy="17" r="1" fill="rgba(57,181,74,1)"/>
  <circle cx="7" cy="17" r="1" fill="rgba(57,181,74,1)"/>
  <circle cx="8" cy="17" r="1" fill="rgba(57,181,74,1)"/>
  <circle cx="9" cy="17" r="1" fill="rgba(57,181,74,1)"/>
  <circle cx="10" cy="17" r="1" fill="rgba(106,199,119,1)"/>
  <circle cx="11" cy="17" r="1" fill="white"/>
  <circle cx="12" cy="17" r="1" fill="white"/>
  <circle cx="13" cy="17" r="1" fill="white"/>
  <circle cx="14" cy="17" r="1" fill="white"/>
  <circle cx="15" cy="17" r="1" fill="white"/>
  <circle cx="0" cy="18" r="1" fill="white"/>
  <circle cx="1" cy="18" r="1" fill="white"/>
  <circle cx="2" cy="18" r="1" fill="white"/>
  <circle cx="3" cy="18" r="1" fill="white"/>
  <circle cx="4" cy="18" r="1" fill="white"/>
  <circle cx="5" cy="18" r="1" fill="rgba(205,236,210,1)"/>
  <circle cx="6" cy="18" r="1" fill="rgba(57,181,74,1)"/>
  <circle cx="7" cy="18" r="1" fill="rgba(57,181,74,1)"/>
  <circle cx="8" cy="18" r="1" fill="rgba(57,181,74,1)"/>
  <circle cx="9" cy="18" r="1" fill="rgba(57,181,74,1)"/>
  <circle cx="10" cy="18" r="1" fill="rgba(106,199,119,1)"/>
  <circle cx="11" cy="18" r="1" fill="white"/>
  <circle cx="12" cy="18" r="1" fill="white"/>
  <circle cx="13" cy="18" r="1" fill="white"/>
  <circle cx="14" cy="18" r="1" fill="white"/>
  <circle cx="15" cy="18" r="1" fill="white"/>
  <circle cx="0" cy="19" r="1" fill="white"/>
  <circle cx="1" cy="19" r="1" fill="white"/>
  <circle cx="2" cy="19" r="1" fill="white"/>
  <circle cx="3" cy="19" r="1" fill="white"/>
  <circle cx="4" cy="19" r="1" fill="white"/>
  <circle cx="5" cy="19" r="1" fill="rgba(205,236,210,1)"/>
  <circle cx="6" cy="19" r="1" fill="rgba(57,181,74,1)"/>
  <circle cx="7" cy="19" r="1" fill="rgba(57,181,74,1)"/>
  <circle cx="8" cy="19" r="1" fill="rgba(57,181,74,1)"/>
  <circle cx="9" cy="19" r="1" fill="rgba(57,181,74,1)"/>
  <circle cx="10" cy="19" r="1" fill="rgba(106,199,119,1)"/>
  <circle cx="11" cy="19" r="1" fill="white"/>
  <circle cx="12" cy="19" r="1" fill="white"/>
  <circle cx="13" cy="19" r="1" fill="white"/>
  <circle cx="14" cy="19" r="1" fill="white"/>
  <circle cx="15" cy="19" r="1" fill="white"/>
  <circle cx="0" cy="20" r="1" fill="white"/>
  <circle cx="1" cy="20" r="1" fill="white"/>
  <circle cx="2" cy="20" r="1" fill="white"/>
  <circle cx="3" cy="20" r="1" fill="white"/>
  <circle cx="4" cy="20" r="1" fill="white"/>
  <circle cx="5" cy="20" r="1" fill="rgba(205,236,210,1)"/>
  <circle cx="6" cy="20" r="1" fill="rgba(57,181,74,1)"/>
  <circle cx="7" cy="20" r="1" fill="rgba(57,181,74,1)"/>
  <circle cx="8" cy="20" r="1" fill="rgba(57,181,74,1)"/>
  <circle cx="9" cy="20" r="1" fill="rgba(57,181,74,1)"/>
  <circle cx="10" cy="20" r="1" fill="rgba(106,199,119,1)"/>
  <circle cx="11" cy="20" r="1" fill="white"/>
  <circle cx="12" cy="20" r="1" fill="white"/>
  <circle cx="13" cy="20" r="1" fill="white"/>
  <circle cx="14" cy="20" r="1" fill="white"/>
  <circle cx="15" cy="20" r="1" fill="white"/>
  <circle cx="0" cy="21" r="1" fill="white"/>
  <circle cx="1" cy="21" r="1" fill="white"/>
  <circle cx="2" cy="21" r="1" fill="white"/>
  <circle cx="3" cy="21" r="1" fill="white"/>
  <circle cx="4" cy="21" r="1" fill="white"/>
  <circle cx="5" cy="21" r="1" fill="rgba(205,236,210,1)"/>
  <circle cx="6" cy="21" r="1" fill="rgba(57,181,74,1)"/>
  <circle cx="7" cy="21" r="1" fill="rgba(57,181,74,1)"/>
  <circle cx="8" cy="21" r="1" fill="rgba(57,181,74,1)"/>
  <circle cx="9" cy="21" r="1" fill="rgba(57,181,74,1)"/>
  <circle cx="10" cy="21" r="1" fill="rgba(106,199,119,1)"/>
  <circle cx="11" cy="21" r="1" fill="white"/>
  <circle cx="12" cy="21" r="1" fill="white"/>
  <circle cx="13" cy="21" r="1" fill="white"/>
  <circle cx="14" cy="21" r="1" fill="white"/>
  <circle cx="15" cy="21" r="1" fill="white"/>
  <circle cx="0" cy="22" r="1" fill="white"/>
  <circle cx="1" cy="22" r="1" fill="white"/>
  <circle cx="2" cy="22" r="1" fill="white"/>
  <circle cx="3" cy="22" r="1" fill="white"/>
  <circle cx="4" cy="22" r="1" fill="white"/>
  <circle cx="5" cy="22" r="1" fill="rgba(205,236,210,1)"/>
  <circle cx="6" cy="22" r="1" fill="rgba(57,181,74,1)"/>
  <circle cx="7" cy="22" r="1" fill="rgba(57,181,74,1)"/>
  <circle cx="8" cy="22" r="1" fill="rgba(57,181,74,1)"/>
  <circle cx="9" cy="22" r="1" fill="rgba(57,181,74,1)"/>
  <circle cx="10" cy="22" r="1" fill="rgba(106,199,119,1)"/>
  <circle cx="11" cy="22" r="1" fill="white"/>
  <circle cx="12" cy="22" r="1" fill="white"/>
  <circle cx="13" cy="22" r="1" fill="white"/>
  <circle cx="14" cy="22" r="1" fill="white"/>
  <circle cx="15" cy="22" r="1" fill="white"/>
  <circle cx="0" cy="23" r="1" fill="white"/>
  <circle cx="1" cy="23" r="1" fill="white"/>
  <circle cx="2" cy="23" r="1" fill="white"/>
  <circle cx="3" cy="23" r="1" fill="white"/>
  <circle cx="4" cy="23" r="1" fill="white"/>
  <circle cx="5" cy="23" r="1" fill="rgba(205,236,210,1)"/>
  <circle cx="6" cy="23" r="1" fill="rgba(57,181,74,1)"/>
  <circle cx="7" cy="23" r="1" fill="rgba(57,181,74,1)"/>
  <circle cx="8" cy="23" r="1" fill="rgba(57,181,74,1)"/>
  <circle cx="9" cy="23" r="1" fill="rgba(57,181,74,1)"/>
  <circle cx="10" cy="23" r="1" fill="rgba(106,199,119,1)"/>
  <circle cx="11" cy="23" r="1" fill="white"/>
  <circle cx="12" cy="23" r="1" fill="white"/>
  <circle cx="13" cy="23" r="1" fill="white"/>
  <circle cx="14" cy="23" r="1" fill="white"/>
  <circle cx="15" cy="23" r="1" fill="white"/>
  <circle cx="0" cy="24" r="1" fill="white"/>
  <circle cx="1" cy="24" r="1" fill="white"/>
  <circle cx="2" cy="24" r="1" fill="white"/>
  <circle cx="3" cy="24" r="1" fill="white"/>
  <circle cx="4" cy="24" r="1" fill="white"/>
  <circle cx="5" cy="24" r="1" fill="rgba(205,236,210,1)"/>
  <circle cx="6" cy="24" r="1" fill="rgba(57,181,74,1)"/>
  <circle cx="7" cy="24" r="1" fill="rgba(57,181,74,1)"/>
  <circle cx="8" cy="24" r="1" fill="rgba(57,181,74,1)"/>
  <circle cx="9" cy="24" r="1" fill="rgba(57,181,74,1)"/>
  <circle cx="10" cy="24" r="1" fill="rgba(106,199,119,1)"/>
  <circle cx="11" cy="24" r="1" fill="white"/>
  <circle cx="12" cy="24" r="1" fill="white"/>
  <circle cx="13" cy="24" r="1" fill="white"/>
  <circle cx="14" cy="24" r="1" fill="white"/>
  <circle cx="15" cy="24" r="1" fill="white"/>
  <circle cx="0" cy="25" r="1" fill="white"/>
  <circle cx="1" cy="25" r="1" fill="white"/>
  <circle cx="2" cy="25" r="1" fill="white"/>
  <circle cx="3" cy="25" r="1" fill="white"/>
  <circle cx="4" cy="25" r="1" fill="white"/>
  <circle cx="5" cy="25" r="1" fill="rgba(205,236,210,1)"/>
  <circle cx="6" cy="25" r="1" fill="rgba(57,181,74,1)"/>
  <circle cx="7" cy="25" r="1" fill="rgba(57,181,74,1)"/>
  <circle cx="8" cy="25" r="1" fill="rgba(57,181,74,1)"/>
  <circle cx="9" cy="25" r="1" fill="rgba(57,181,74,1)"/>
  <circle cx="10" cy="25" r="1" fill="rgba(106,199,119,1)"/>
  <circle cx="11" cy="25" r="1" fill="white"/>
  <circle cx="12" cy="25" r="1" fill="white"/>
  <circle cx="13" cy="25" r="1" fill="white"/>
  <circle cx="14" cy="25" r="1" fill="white"/>
  <circle cx="15" cy="25" r="1" fill="white"/>
  <circle cx="0" cy="26" r="1" fill="white"/>
  <circle cx="1" cy="26" r="1" fill="white"/>
  <circle cx="2" cy="26" r="1" fill="white"/>
  <circle cx="3" cy="26" r="1" fill="white"/>
  <circle cx="4" cy="26" r="1" fill="white"/>
  <circle cx="5" cy="26" r="1" fill="rgba(205,236,210,1)"/>
  <circle cx="6" cy="26" r="1" fill="rgba(57,181,74,1)"/>
  <circle cx="7" cy="26" r="1" fill="rgba(57,181,74,1)"/>
  <circle cx="8" cy="26" r="1" fill="rgba(57,181,74,1)"/>
  <circle cx="9" cy="26" r="1" fill="rgba(57,181,74,1)"/>
  <circle cx="10" cy="26" r="1" fill="rgba(106,199,119,1)"/>
  <circle cx="11" cy="26" r="1" fill="white"/>
  <circle cx="12" cy="26" r="1" fill="white"/>
  <circle cx="13" cy="26" r="1" fill="white"/>
  <circle cx="14" cy="26" r="1" fill="white"/>
  <circle cx="15" cy="26" r="1" fill="white"/>
  <circle cx="0" cy="27" r="1" fill="white"/>
  <circle cx="1" cy="27" r="1" fill="white"/>
  <circle cx="2" cy="27" r="1" fill="white"/>
  <circle cx="3" cy="27" r="1" fill="white"/>
  <circle cx="4" cy="27" r="1" fill="white"/>
  <circle cx="5" cy="27" r="1" fill="rgba(205,236,210,1)"/>
  <circle cx="6" cy="27" r="1" fill="rgba(57,181,74,1)"/>
  <circle cx="7" cy="27" r="1" fill="rgba(57,181,74,1)"/>
  <circle cx="8" cy="27" r="1" fill="rgba(57,181,74,1)"/>
  <circle cx="9" cy="27" r="1" fill="rgba(57,181,74,1)"/>
  <circle cx="10" cy="27" r="1" fill="rgba(106,199,119,1)"/>
  <circle cx="11" cy="27" r="1" fill="white"/>
  <circle cx="12" cy="27" r="1" fill="white"/>
  <circle cx="13" cy="27" r="1" fill="white"/>
  <circle cx="14" cy="27" r="1" fill="white"/>
  <circle cx="15" cy="27" r="1" fill="white"/>
  <circle cx="0" cy="28" r="1" fill="white"/>
  <circle cx="1" cy="28" r="1" fill="white"/>
  <circle cx="2" cy="28" r="1" fill="white"/>
  <circle cx="3" cy="28" r="1" fill="white"/>
  <circle cx="4" cy="28" r="1" fill="white"/>
  <circle cx="5" cy="28" r="1" fill="rgba(205,236,210,1)"/>
  <circle cx="6" cy="28" r="1" fill="rgba(57,181,74,1)"/>
  <circle cx="7" cy="28" r="1" fill="rgba(57,181,74,1)"/>
  <circle cx="8" cy="28" r="1" fill="rgba(57,181,74,1)"/>
  <circle cx="9" cy="28" r="1" fill="rgba(57,181,74,1)"/>
  <circle cx="10" cy="28" r="1" fill="rgba(106,199,119,1)"/>
  <circle cx="11" cy="28" r="1" fill="white"/>
  <circle cx="12" cy="28" r="1" fill="white"/>
  <circle cx="13" cy="28" r="1" fill="white"/>
  <circle cx="14" cy="28" r="1" fill="white"/>
  <circle cx="15" cy="28" r="1" fill="white"/>
  <circle cx="0" cy="29" r="1" fill="white"/>
  <circle cx="1" cy="29" r="1" fill="white"/>
  <circle cx="2" cy="29" r="1" fill="white"/>
  <circle cx="3" cy="29" r="1" fill="white"/>
  <circle cx="4" cy="29" r="1" fill="white"/>
  <circle cx="5" cy="29" r="1" fill="rgba(205,236,210,1)"/>
  <circle cx="6" cy="29" r="1" fill="rgba(57,181,74,1)"/>
  <circle cx="7" cy="29" r="1" fill="rgba(57,181,74,1)"/>
  <circle cx="8" cy="29" r="1" fill="rgba(57,181,74,1)"/>
  <circle cx="9" cy="29" r="1" fill="rgba(57,181,74,1)"/>
  <circle cx="10" cy="29" r="1" fill="rgba(106,199,119,1)"/>
  <circle cx="11" cy="29" r="1" fill="white"/>
  <circle cx="12" cy="29" r="1" fill="white"/>
  <circle cx="13" cy="29" r="1" fill="white"/>
  <circle cx="14" cy="29" r="1" fill="white"/>
  <circle cx="15" cy="29" r="1" fill="white"/>
  <circle cx="0" cy="30" r="1" fill="rgba(218,241,221,1)"/>
  <circle cx="1" cy="30" r="1" fill="rgba(106,199,119,1)"/>
  <circle cx="2" cy="30" r="1" fill="rgba(106,199,119,1)"/>
  <circle cx="3" cy="30" r="1" fill="rgba(106,199,119,1)"/>
  <circle cx="4" cy="30" r="1" fill="rgba(106,199,119,1)"/>
  <circle cx="5" cy="30" r="1" fill="rgba(93,195,107,1)"/>
  <circle cx="6" cy="30" r="1" fill="rgba(57,181,74,1)"/>
  <circle cx="7" cy="30" r="1" fill="rgba(57,181,74,1)"/>
  <circle cx="8" cy="30" r="1" fill="rgba(57,181,74,1)"/>
  <circle cx="9" cy="30" r="1" fill="rgba(57,181,74,1)"/>
  <circle cx="10" cy="30" r="1" fill="rgba(69,185,85,1)"/>
  <circle cx="11" cy="30" r="1" fill="rgba(106,199,119,1)"/>
  <circle cx="12" cy="30" r="1" fill="rgba(106,199,119,1)"/>
  <circle cx="13" cy="30" r="1" fill="rgba(106,199,119,1)"/>
  <circle cx="14" cy="30" r="1" fill="rgba(106,199,119,1)"/>
  <circle cx="15" cy="30" r="1" fill="rgba(143,213,153,1)"/>
  <circle cx="0" cy="31" r="1" fill="rgba(205,236,210,1)"/>
  <circle cx="1" cy="31" r="1" fill="rgba(57,181,74,1)"/>
  <circle cx="2" cy="31" r="1" fill="rgba(57,181,74,1)"/>
  <circle cx="3" cy="31" r="1" fill="rgba(57,181,74,1)"/>
  <circle cx="4" cy="31" r="1" fill="rgba(57,181,74,1)"/>
  <circle cx="5" cy="31" r="1" fill="rgba(57,181,74,1)"/>
  <circle cx="6" cy="31" r="1" fill="rgba(57,181,74,1)"/>
  <circle cx="7" cy="31" r="1" fill="rgba(57,181,74,1)"/>
  <circle cx="8" cy="31" r="1" fill="rgba(57,181,74,1)"/>
  <circle cx="9" cy="31" r="1" fill="rgba(57,181,74,1)"/>
  <circle cx="10" cy="31" r="1" fill="rgba(57,181,74,1)"/>
  <circle cx="11" cy="31" r="1" fill="rgba(57,181,74,1)"/>
  <circle cx="12" cy="31" r="1" fill="rgba(57,181,74,1)"/>
  <circle cx="13" cy="31" r="1" fill="rgba(57,181,74,1)"/>
  <circle cx="14" cy="31" r="1" fill="rgba(57,181,74,1)"/>
  <circle cx="15" cy="31" r="1" fill="rgba(106,199,119,1)"/>
  <circle cx="0" cy="32" r="1" fill="rgba(205,236,210,1)"/>
  <circle cx="1" cy="32" r="1" fill="rgba(57,181,74,1)"/>
  <circle cx="2" cy="32" r="1" fill="rgba(57,181,74,1)"/>
  <circle cx="3" cy="32" r="1" fill="rgba(57,181,74,1)"/>
  <circle cx="4" cy="32" r="1" fill="rgba(57,181,74,1)"/>
  <circle cx="5" cy="32" r="1" fill="rgba(57,181,74,1)"/>
  <circle cx="6" cy="32" r="1" fill="rgba(57,181,74,1)"/>
  <circle cx="7" cy="32" r="1" fill="rgba(57,181,74,1)"/>
  <circle cx="8" cy="32" r="1" fill="rgba(57,181,74,1)"/>
  <circle cx="9" cy="32" r="1" fill="rgba(57,181,74,1)"/>
  <circle cx="10" cy="32" r="1" fill="rgba(57,181,74,1)"/>
  <circle cx="11" cy="32" r="1" fill="rgba(57,181,74,1)"/>
  <circle cx="12" cy="32" r="1" fill="rgba(57,181,74,1)"/>
  <circle cx="13" cy="32" r="1" fill="rgba(57,181,74,1)"/>
  <circle cx="14" cy="32" r="1" fill="rgba(57,181,74,1)"/>
  <circle cx="15" cy="32" r="1" fill="rgba(106,199,119,1)"/>
  <circle cx="0" cy="33" r="1" fill="rgba(205,236,210,1)"/>
  <circle cx="1" cy="33" r="1" fill="rgba(57,181,74,1)"/>
  <circle cx="2" cy="33" r="1" fill="rgba(57,181,74,1)"/>
  <circle cx="3" cy="33" r="1" fill="rgba(57,181,74,1)"/>
  <circle cx="4" cy="33" r="1" fill="rgba(57,181,74,1)"/>
  <circle cx="5" cy="33" r="1" fill="rgba(57,181,74,1)"/>
  <circle cx="6" cy="33" r="1" fill="rgba(57,181,74,1)"/>
  <circle cx="7" cy="33" r="1" fill="rgba(57,181,74,1)"/>
  <circle cx="8" cy="33" r="1" fill="rgba(57,181,74,1)"/>
  <circle cx="9" cy="33" r="1" fill="rgba(57,181,74,1)"/>
  <circle cx="10" cy="33" r="1" fill="rgba(57,181,74,1)"/>
  <circle cx="11" cy="33" r="1" fill="rgba(57,181,74,1)"/>
  <circle cx="12" cy="33" r="1" fill="rgba(57,181,74,1)"/>
  <circle cx="13" cy="33" r="1" fill="rgba(57,181,74,1)"/>
  <circle cx="14" cy="33" r="1" fill="rgba(57,181,74,1)"/>
  <circle cx="15" cy="33" r="1" fill="rgba(106,199,119,1)"/>
  <circle cx="0" cy="34" r="1" fill="rgba(205,236,210,1)"/>
  <circle cx="1" cy="34" r="1" fill="rgba(57,181,74,1)"/>
  <circle cx="2" cy="34" r="1" fill="rgba(57,181,74,1)"/>
  <circle cx="3" cy="34" r="1" fill="rgba(57,181,74,1)"/>
  <circle cx="4" cy="34" r="1" fill="rgba(57,181,74,1)"/>
  <circle cx="5" cy="34" r="1" fill="rgba(57,181,74,1)"/>
  <circle cx="6" cy="34" r="1" fill="rgba(57,181,74,1)"/>
  <circle cx="7" cy="34" r="1" fill="rgba(57,181,74,1)"/>
  <circle cx="8" cy="34" r="1" fill="rgba(57,181,74,1)"/>
  <circle cx="9" cy="34" r="1" fill="rgba(57,181,74,1)"/>
  <circle cx="10" cy="34" r="1" fill="rgba(57,181,74,1)"/>
  <circle cx="11" cy="34" r="1" fill="rgba(57,181,74,1)"/>
  <circle cx="12" cy="34" r="1" fill="rgba(57,181,74,1)"/>
  <circle cx="13" cy="34" r="1" fill="rgba(57,181,74,1)"/>
  <circle cx="14" cy="34" r="1" fill="rgba(57,181,74,1)"/>
  <circle cx="15" cy="34" r="1" fill="rgba(106,199,119,1)"/>
  <circle cx="0" cy="35" r="1" fill="rgba(243,250,244,1)"/>
  <circle cx="1" cy="35" r="1" fill="rgba(205,236,210,1)"/>
  <circle cx="2" cy="35" r="1" fill="rgba(205,236,210,1)"/>
  <circle cx="3" cy="35" r="1" fill="rgba(205,236,210,1)"/>
  <circle cx="4" cy="35" r="1" fill="rgba(205,236,210,1)"/>
  <circle cx="5" cy="35" r="1" fill="rgba(205,236,210,1)"/>
  <circle cx="6" cy="35" r="1" fill="rgba(205,236,210,1)"/>
  <circle cx="7" cy="35" r="1" fill="rgba(205,236,210,1)"/>
  <circle cx="8" cy="35" r="1" fill="rgba(205,236,210,1)"/>
  <circle cx="9" cy="35" r="1" fill="rgba(205,236,210,1)"/>
  <circle cx="10" cy="35" r="1" fill="rgba(205,236,210,1)"/>
  <circle cx="11" cy="35" r="1" fill="rgba(205,236,210,1)"/>
  <circle cx="12" cy="35" r="1" fill="rgba(205,236,210,1)"/>
  <circle cx="13" cy="35" r="1" fill="rgba(205,236,210,1)"/>
  <circle cx="14" cy="35" r="1" fill="rgba(205,236,210,1)"/>
  <circle cx="15" cy="35" r="1" fill="rgba(218,241,221,1)"/>
</svg>
